<?xml version="1.0" encoding="utf-8" standalone="no"?>
<!DOCTYPE svg PUBLIC "-//W3C//DTD SVG 1.1//EN"
  "http://www.w3.org/Graphics/SVG/1.1/DTD/svg11.dtd">
<!-- Created with matplotlib (https://matplotlib.org/) -->
<svg height="576pt" version="1.1" viewBox="0 0 1800 576" width="1800pt" xmlns="http://www.w3.org/2000/svg" xmlns:xlink="http://www.w3.org/1999/xlink">
 <metadata>
  <rdf:RDF xmlns:cc="http://creativecommons.org/ns#" xmlns:dc="http://purl.org/dc/elements/1.1/" xmlns:rdf="http://www.w3.org/1999/02/22-rdf-syntax-ns#">
   <cc:Work>
    <dc:type rdf:resource="http://purl.org/dc/dcmitype/StillImage"/>
    <dc:date>2021-08-30T14:57:33.306253</dc:date>
    <dc:format>image/svg+xml</dc:format>
    <dc:creator>
     <cc:Agent>
      <dc:title>Matplotlib v3.3.2, https://matplotlib.org/</dc:title>
     </cc:Agent>
    </dc:creator>
   </cc:Work>
  </rdf:RDF>
 </metadata>
 <defs>
  <style type="text/css">*{stroke-linecap:butt;stroke-linejoin:round;}</style>
 </defs>
 <g id="figure_1">
  <g id="patch_1">
   <path d="M 0 576 
L 1800 576 
L 1800 0 
L 0 0 
z
" style="fill:none;"/>
  </g>
  <g id="axes_1">
   <g id="patch_2">
    <path d="M 172.407031 441.726562 
L 563.600911 441.726562 
L 563.600911 37.8 
L 172.407031 37.8 
z
" style="fill:none;"/>
   </g>
   <g id="matplotlib.axis_1">
    <g id="xtick_1">
     <g id="line2d_1">
      <defs>
       <path d="M 0 0 
L 0 18 
" id="m7128f91161" style="stroke:#262626;stroke-width:5;"/>
      </defs>
      <g>
       <use style="fill:#262626;stroke:#262626;stroke-width:5;" x="172.407031" xlink:href="#m7128f91161" y="441.726562"/>
      </g>
     </g>
     <g id="text_1">
      <!-- 0 -->
      <g style="fill:#262626;" transform="translate(160.230859 489.821094)scale(0.35 -0.35)">
       <defs>
        <path d="M 34.8125 4.296875 
Q 40.671875 4.296875 42.84375 9.609375 
Q 45.015625 14.9375 45.015625 36.375 
Q 45.015625 57.671875 42.84375 63.078125 
Q 40.671875 68.5 34.8125 68.5 
Q 28.953125 68.5 26.78125 63.171875 
Q 24.609375 57.859375 24.609375 36.375 
Q 24.609375 14.9375 26.78125 9.609375 
Q 28.953125 4.296875 34.8125 4.296875 
z
M 34.8125 -1.421875 
Q 20.21875 -1.421875 12.453125 8.3125 
Q 4.6875 18.0625 4.6875 36.375 
Q 4.6875 54.6875 12.453125 64.453125 
Q 20.21875 74.21875 34.8125 74.21875 
Q 49.359375 74.21875 57.125 64.453125 
Q 64.890625 54.6875 64.890625 36.375 
Q 64.890625 18.0625 57.125 8.3125 
Q 49.359375 -1.421875 34.8125 -1.421875 
z
" id="DejaVuSerif-Bold-48"/>
       </defs>
       <use xlink:href="#DejaVuSerif-Bold-48"/>
      </g>
     </g>
    </g>
    <g id="xtick_2">
     <g id="line2d_2">
      <g>
       <use style="fill:#262626;stroke:#262626;stroke-width:5;" x="368.003971" xlink:href="#m7128f91161" y="441.726562"/>
      </g>
     </g>
     <g id="text_2">
      <!-- 1 -->
      <g style="fill:#262626;" transform="translate(355.827799 489.821094)scale(0.35 -0.35)">
       <defs>
        <path d="M 13.71875 0 
L 13.71875 5.90625 
L 27.390625 5.90625 
L 27.390625 64.890625 
L 12.203125 55.90625 
L 12.203125 63.1875 
L 30.515625 74.21875 
L 45.90625 74.21875 
L 45.90625 5.90625 
L 59.625 5.90625 
L 59.625 0 
z
" id="DejaVuSerif-Bold-49"/>
       </defs>
       <use xlink:href="#DejaVuSerif-Bold-49"/>
      </g>
     </g>
    </g>
    <g id="xtick_3">
     <g id="line2d_3">
      <g>
       <use style="fill:#262626;stroke:#262626;stroke-width:5;" x="563.600911" xlink:href="#m7128f91161" y="441.726562"/>
      </g>
     </g>
     <g id="text_3">
      <!-- 2 -->
      <g style="fill:#262626;" transform="translate(551.42474 489.821094)scale(0.35 -0.35)">
       <defs>
        <path d="M 13.1875 54.890625 
L 7.328125 54.890625 
L 7.328125 70.609375 
Q 13.28125 72.40625 19.109375 73.3125 
Q 24.953125 74.21875 30.90625 74.21875 
Q 44.828125 74.21875 52.609375 68.53125 
Q 60.40625 62.84375 60.40625 52.6875 
Q 60.40625 45.453125 56.109375 39.71875 
Q 51.8125 33.984375 39.703125 26.125 
L 19.390625 12.796875 
L 53.90625 12.796875 
L 53.90625 21.390625 
L 60.59375 21.390625 
L 60.59375 0 
L 6.6875 0 
L 6.6875 11.921875 
L 17.484375 19.390625 
Q 31.296875 28.90625 35.890625 35.59375 
Q 40.484375 42.28125 40.484375 51.21875 
Q 40.484375 59.671875 36.984375 64.078125 
Q 33.5 68.5 26.8125 68.5 
Q 21.046875 68.5 17.578125 65.015625 
Q 14.109375 61.53125 13.1875 54.890625 
z
" id="DejaVuSerif-Bold-50"/>
       </defs>
       <use xlink:href="#DejaVuSerif-Bold-50"/>
      </g>
     </g>
    </g>
    <g id="text_4">
     <!-- Growth rate ($h^{-1}$) -->
     <g style="fill:#262626;" transform="translate(194.578971 530.921094)scale(0.35 -0.35)">
      <defs>
       <path d="M 68.796875 50 
Q 66.609375 59.671875 61.46875 63.984375 
Q 56.34375 68.3125 47.015625 68.3125 
Q 35.6875 68.3125 30.390625 60.625 
Q 25.09375 52.9375 25.09375 36.375 
Q 25.09375 19.96875 30.171875 12.234375 
Q 35.25 4.5 46 4.5 
Q 50.09375 4.5 53.609375 5.421875 
Q 57.125 6.34375 60.015625 8.203125 
L 60.015625 28.21875 
L 51.21875 28.21875 
L 51.21875 34.078125 
L 77.484375 34.078125 
L 77.484375 6.109375 
Q 69.28125 2.296875 61.109375 0.4375 
Q 52.9375 -1.421875 44.390625 -1.421875 
Q 25.640625 -1.421875 14.921875 8.6875 
Q 4.203125 18.796875 4.203125 36.375 
Q 4.203125 54 14.921875 64.109375 
Q 25.640625 74.21875 44.390625 74.21875 
Q 52.203125 74.21875 59.765625 72.65625 
Q 67.328125 71.09375 75 67.921875 
L 75 50 
z
" id="DejaVuSerif-Bold-71"/>
       <path d="M 53.71875 52.484375 
L 53.71875 37.015625 
L 48.1875 37.015625 
Q 47.90625 41.15625 45.953125 43.1875 
Q 44 45.21875 40.28125 45.21875 
Q 34.625 45.21875 31.34375 40.234375 
Q 28.078125 35.25 28.078125 26.421875 
L 28.078125 5.90625 
L 37.5 5.90625 
L 37.5 0 
L 3.421875 0 
L 3.421875 5.90625 
L 10.796875 5.90625 
L 10.796875 46 
L 2.875 46 
L 2.875 51.90625 
L 28.078125 51.90625 
L 28.078125 42.671875 
Q 30.609375 48.09375 34.78125 50.703125 
Q 38.96875 53.328125 45.015625 53.328125 
Q 46.53125 53.328125 48.703125 53.09375 
Q 50.875 52.875 53.71875 52.484375 
z
" id="DejaVuSerif-Bold-114"/>
       <path d="M 33.40625 4.109375 
Q 38.875 4.109375 41.09375 8.796875 
Q 43.3125 13.484375 43.3125 25.984375 
Q 43.3125 38.484375 41.109375 43.140625 
Q 38.921875 47.796875 33.40625 47.796875 
Q 27.875 47.796875 25.625 43.078125 
Q 23.390625 38.375 23.390625 25.984375 
Q 23.390625 13.578125 25.625 8.84375 
Q 27.875 4.109375 33.40625 4.109375 
z
M 33.40625 -1.421875 
Q 19.671875 -1.421875 11.890625 5.875 
Q 4.109375 13.1875 4.109375 25.984375 
Q 4.109375 38.8125 11.890625 46.0625 
Q 19.671875 53.328125 33.40625 53.328125 
Q 47.171875 53.328125 54.9375 46.0625 
Q 62.703125 38.8125 62.703125 25.984375 
Q 62.703125 13.1875 54.90625 5.875 
Q 47.125 -1.421875 33.40625 -1.421875 
z
" id="DejaVuSerif-Bold-111"/>
       <path d="M 53.90625 51.90625 
L 65.71875 17.28125 
L 75.484375 46 
L 68.703125 46 
L 68.703125 51.90625 
L 88.09375 51.90625 
L 88.09375 46 
L 81.984375 46 
L 66.3125 0 
L 54.390625 0 
L 43.40625 32.515625 
L 32.328125 0 
L 20.515625 0 
L 4.78125 46 
L -0.875 46 
L -0.875 51.90625 
L 28.515625 51.90625 
L 28.515625 46 
L 22.40625 46 
L 31.984375 17.921875 
L 43.609375 51.90625 
z
" id="DejaVuSerif-Bold-119"/>
       <path d="M 9.90625 46 
L 2.390625 46 
L 2.390625 51.90625 
L 9.90625 51.90625 
L 9.90625 68.015625 
L 27.203125 68.015625 
L 27.203125 51.90625 
L 41.609375 51.90625 
L 41.609375 46 
L 27.203125 46 
L 27.203125 14.203125 
Q 27.203125 7.421875 28.265625 5.765625 
Q 29.34375 4.109375 32.171875 4.109375 
Q 35.296875 4.109375 36.8125 6.203125 
Q 38.328125 8.296875 38.421875 12.703125 
L 45.703125 12.703125 
Q 45.265625 4.890625 41.421875 1.734375 
Q 37.59375 -1.421875 28.21875 -1.421875 
Q 17.53125 -1.421875 13.71875 1.921875 
Q 9.90625 5.28125 9.90625 14.203125 
z
" id="DejaVuSerif-Bold-116"/>
       <path d="M 3.421875 0 
L 3.421875 5.90625 
L 10.796875 5.90625 
L 10.796875 70.125 
L 3.078125 70.125 
L 3.078125 75.984375 
L 28.078125 75.984375 
L 28.078125 44.578125 
Q 31.203125 49.21875 35.203125 51.265625 
Q 39.203125 53.328125 45.3125 53.328125 
Q 54.046875 53.328125 58.515625 48.171875 
Q 62.984375 43.015625 62.984375 33.015625 
L 62.984375 5.90625 
L 70.40625 5.90625 
L 70.40625 0 
L 39.40625 0 
L 39.40625 5.90625 
L 45.703125 5.90625 
L 45.703125 33.5 
Q 45.703125 40.09375 44.015625 42.65625 
Q 42.328125 45.21875 38.1875 45.21875 
Q 32.953125 45.21875 30.515625 41.375 
Q 28.078125 37.546875 28.078125 29.203125 
L 28.078125 5.90625 
L 34.421875 5.90625 
L 34.421875 0 
z
" id="DejaVuSerif-Bold-104"/>
       <path id="DejaVuSerif-Bold-32"/>
       <path d="M 55.078125 31.890625 
L 55.078125 5.90625 
L 62.5 5.90625 
L 62.5 0 
L 37.796875 0 
L 37.796875 6.59375 
Q 34.375 2.484375 30.171875 0.53125 
Q 25.984375 -1.421875 20.609375 -1.421875 
Q 12.640625 -1.421875 8.375 2.84375 
Q 4.109375 7.125 4.109375 15.09375 
Q 4.109375 23.828125 10.234375 28.171875 
Q 16.359375 32.515625 28.71875 32.515625 
L 37.796875 32.515625 
L 37.796875 35.59375 
Q 37.796875 41.890625 34.8125 44.890625 
Q 31.84375 47.90625 25.59375 47.90625 
Q 20.40625 47.90625 17.59375 45.78125 
Q 14.796875 43.65625 13.625 38.8125 
L 8.109375 38.8125 
L 8.109375 50 
Q 12.75 51.65625 17.71875 52.484375 
Q 22.703125 53.328125 28.21875 53.328125 
Q 42.140625 53.328125 48.609375 48.140625 
Q 55.078125 42.96875 55.078125 31.890625 
z
M 37.796875 16.3125 
L 37.796875 26.703125 
L 31.296875 26.703125 
Q 26.46875 26.703125 23.875 24.0625 
Q 21.296875 21.4375 21.296875 16.5 
Q 21.296875 11.578125 23.171875 9.125 
Q 25.046875 6.6875 28.90625 6.6875 
Q 32.90625 6.6875 35.34375 9.328125 
Q 37.796875 11.96875 37.796875 16.3125 
z
" id="DejaVuSerif-Bold-97"/>
       <path d="M 40.09375 29.296875 
Q 40.09375 39.546875 38.1875 43.671875 
Q 36.28125 47.796875 31.6875 47.796875 
Q 27.25 47.796875 25.3125 43.75 
Q 23.390625 39.703125 23.390625 30.171875 
L 23.390625 29.296875 
z
M 59.078125 23.484375 
L 23.390625 23.484375 
L 23.390625 23.09375 
Q 23.390625 13.03125 26.40625 8.5625 
Q 29.4375 4.109375 36.1875 4.109375 
Q 41.796875 4.109375 45.265625 7.078125 
Q 48.734375 10.0625 49.703125 15.71875 
L 57.8125 15.71875 
Q 55.71875 6.890625 49.46875 2.734375 
Q 43.21875 -1.421875 31.984375 -1.421875 
Q 18.5 -1.421875 11.296875 5.6875 
Q 4.109375 12.796875 4.109375 25.984375 
Q 4.109375 38.875 11.46875 46.09375 
Q 18.84375 53.328125 31.984375 53.328125 
Q 44.875 53.328125 51.75 45.734375 
Q 58.640625 38.140625 59.078125 23.484375 
z
" id="DejaVuSerif-Bold-101"/>
       <path d="M 42.09375 -15.578125 
Q 25.640625 -9.46875 17.53125 1.90625 
Q 9.421875 13.28125 9.421875 30.171875 
Q 9.421875 47.078125 17.421875 58.296875 
Q 25.4375 69.53125 42.09375 75.984375 
L 42.09375 70.125 
Q 34.375 65.4375 30.984375 56.21875 
Q 27.59375 47.015625 27.59375 30.171875 
Q 27.59375 13.375 30.984375 4.171875 
Q 34.375 -5.03125 42.09375 -9.71875 
z
" id="DejaVuSerif-Bold-40"/>
       <path d="M 64.5 33.296875 
L 58.015625 0 
L 40.484375 0 
L 46 28.515625 
Q 46.578125 31.296875 46.890625 33.21875 
Q 47.21875 35.15625 47.21875 36.28125 
Q 47.21875 39.40625 45.484375 41.109375 
Q 43.75 42.828125 40.578125 42.828125 
Q 35.15625 42.828125 31.265625 38.59375 
Q 27.390625 34.375 25.875 26.90625 
L 20.609375 0 
L 3.078125 0 
L 17.828125 75.984375 
L 35.40625 75.984375 
L 29.6875 46.6875 
Q 34.515625 51.421875 39.390625 53.703125 
Q 44.28125 56 49.609375 56 
Q 57.171875 56 61.265625 52.046875 
Q 65.375 48.09375 65.375 40.921875 
Q 65.375 39.359375 65.15625 37.453125 
Q 64.9375 35.546875 64.5 33.296875 
z
" id="DejaVuSans-BoldOblique-104"/>
       <path d="M 10.59375 37.109375 
L 73.1875 37.109375 
L 73.1875 25.59375 
L 10.59375 25.59375 
z
" id="DejaVuSans-Bold-8722"/>
       <path d="M 11.71875 12.984375 
L 28.328125 12.984375 
L 28.328125 60.109375 
L 11.28125 56.59375 
L 11.28125 69.390625 
L 28.21875 72.90625 
L 46.09375 72.90625 
L 46.09375 12.984375 
L 62.703125 12.984375 
L 62.703125 0 
L 11.71875 0 
z
" id="DejaVuSans-Bold-49"/>
       <path d="M 5.078125 -15.578125 
L 5.078125 -9.71875 
Q 12.796875 -5.03125 16.1875 4.171875 
Q 19.578125 13.375 19.578125 30.171875 
Q 19.578125 47.015625 16.1875 56.21875 
Q 12.796875 65.4375 5.078125 70.125 
L 5.078125 75.984375 
Q 21.734375 69.53125 29.765625 58.296875 
Q 37.796875 47.078125 37.796875 30.171875 
Q 37.796875 13.28125 29.65625 1.90625 
Q 21.53125 -9.46875 5.078125 -15.578125 
z
" id="DejaVuSerif-Bold-41"/>
      </defs>
      <use transform="translate(0 0.684375)" xlink:href="#DejaVuSerif-Bold-71"/>
      <use transform="translate(85.400391 0.684375)" xlink:href="#DejaVuSerif-Bold-114"/>
      <use transform="translate(138.085938 0.684375)" xlink:href="#DejaVuSerif-Bold-111"/>
      <use transform="translate(204.785156 0.684375)" xlink:href="#DejaVuSerif-Bold-119"/>
      <use transform="translate(290.869141 0.684375)" xlink:href="#DejaVuSerif-Bold-116"/>
      <use transform="translate(337.060547 0.684375)" xlink:href="#DejaVuSerif-Bold-104"/>
      <use transform="translate(409.765625 0.684375)" xlink:href="#DejaVuSerif-Bold-32"/>
      <use transform="translate(444.580078 0.684375)" xlink:href="#DejaVuSerif-Bold-114"/>
      <use transform="translate(497.265625 0.684375)" xlink:href="#DejaVuSerif-Bold-97"/>
      <use transform="translate(562.060547 0.684375)" xlink:href="#DejaVuSerif-Bold-116"/>
      <use transform="translate(608.251953 0.684375)" xlink:href="#DejaVuSerif-Bold-101"/>
      <use transform="translate(671.875 0.684375)" xlink:href="#DejaVuSerif-Bold-32"/>
      <use transform="translate(706.689453 0.684375)" xlink:href="#DejaVuSerif-Bold-40"/>
      <use transform="translate(754.003906 0.684375)" xlink:href="#DejaVuSans-BoldOblique-104"/>
      <use transform="translate(832.643021 38.965625)scale(0.7)" xlink:href="#DejaVuSans-Bold-8722"/>
      <use transform="translate(891.295365 38.965625)scale(0.7)" xlink:href="#DejaVuSans-Bold-49"/>
      <use transform="translate(942.735794 0.684375)" xlink:href="#DejaVuSerif-Bold-41"/>
     </g>
    </g>
   </g>
   <g id="matplotlib.axis_2">
    <g id="ytick_1">
     <g id="line2d_4">
      <defs>
       <path d="M 0 0 
L -18 0 
" id="m77b5c1a269" style="stroke:#262626;stroke-width:5;"/>
      </defs>
      <g>
       <use style="fill:#262626;stroke:#262626;stroke-width:5;" x="172.407031" xlink:href="#m77b5c1a269" y="367.99904"/>
      </g>
     </g>
     <g id="text_5">
      <!-- 50 -->
      <g style="fill:#262626;" transform="translate(102.202344 381.296305)scale(0.35 -0.35)">
       <defs>
        <path d="M 56.390625 72.90625 
L 56.390625 60.109375 
L 17.390625 60.109375 
L 17.390625 44.09375 
Q 20.609375 46.578125 24.5625 47.84375 
Q 28.515625 49.125 32.90625 49.125 
Q 46.390625 49.125 54.203125 42.3125 
Q 62.015625 35.5 62.015625 23.78125 
Q 62.015625 11.859375 54.203125 5.21875 
Q 46.390625 -1.421875 32.328125 -1.421875 
Q 26.375 -1.421875 20.484375 -0.4375 
Q 14.59375 0.53125 8.203125 2.59375 
L 8.203125 18.5 
L 14.0625 18.5 
Q 14.359375 11.328125 17.796875 7.8125 
Q 21.234375 4.296875 27.984375 4.296875 
Q 35.15625 4.296875 38.625 9.109375 
Q 42.09375 13.921875 42.09375 23.78125 
Q 42.09375 33.5 38.6875 38.296875 
Q 35.296875 43.109375 28.421875 43.109375 
Q 24.703125 43.109375 21.796875 41.578125 
Q 18.890625 40.046875 16.40625 36.8125 
L 11.53125 36.8125 
L 11.53125 72.90625 
z
" id="DejaVuSerif-Bold-53"/>
       </defs>
       <use xlink:href="#DejaVuSerif-Bold-53"/>
       <use x="69.580078" xlink:href="#DejaVuSerif-Bold-48"/>
      </g>
     </g>
    </g>
    <g id="ytick_2">
     <g id="line2d_5">
      <g>
       <use style="fill:#262626;stroke:#262626;stroke-width:5;" x="172.407031" xlink:href="#m77b5c1a269" y="220.857505"/>
      </g>
     </g>
     <g id="text_6">
      <!-- 100 -->
      <g style="fill:#262626;" transform="translate(77.85 234.154771)scale(0.35 -0.35)">
       <use xlink:href="#DejaVuSerif-Bold-49"/>
       <use x="69.580078" xlink:href="#DejaVuSerif-Bold-48"/>
       <use x="139.160156" xlink:href="#DejaVuSerif-Bold-48"/>
      </g>
     </g>
    </g>
    <g id="ytick_3">
     <g id="line2d_6">
      <g>
       <use style="fill:#262626;stroke:#262626;stroke-width:5;" x="172.407031" xlink:href="#m77b5c1a269" y="73.715971"/>
      </g>
     </g>
     <g id="text_7">
      <!-- 150 -->
      <g style="fill:#262626;" transform="translate(77.85 87.013236)scale(0.35 -0.35)">
       <use xlink:href="#DejaVuSerif-Bold-49"/>
       <use x="69.580078" xlink:href="#DejaVuSerif-Bold-53"/>
       <use x="139.160156" xlink:href="#DejaVuSerif-Bold-48"/>
      </g>
     </g>
    </g>
    <g id="text_8">
     <!-- Relative $\alpha_{R,G}$ -->
     <g style="fill:#262626;" transform="translate(64.4 364.888281)rotate(-90)scale(0.35 -0.35)">
      <defs>
       <path d="M 53.078125 35.59375 
Q 57.421875 34.96875 60.390625 32.71875 
Q 63.375 30.46875 65.578125 26.21875 
L 76.21875 5.90625 
L 83.6875 5.90625 
L 83.6875 0 
L 59.71875 0 
L 48.09375 22.015625 
Q 44.734375 28.859375 42.359375 30.734375 
Q 39.984375 32.625 35.796875 32.625 
L 32.8125 32.625 
L 32.8125 5.90625 
L 42.1875 5.90625 
L 42.1875 0 
L 4.6875 0 
L 4.6875 5.90625 
L 14.015625 5.90625 
L 14.015625 67 
L 4.6875 67 
L 4.6875 72.90625 
L 46.296875 72.90625 
Q 58.984375 72.90625 65.890625 67.796875 
Q 72.796875 62.703125 72.796875 53.328125 
Q 72.796875 45.703125 67.890625 41.28125 
Q 62.984375 36.859375 53.078125 35.59375 
z
M 32.8125 38.484375 
L 39.203125 38.484375 
Q 46.046875 38.484375 49.734375 42.1875 
Q 53.421875 45.90625 53.421875 52.78125 
Q 53.421875 59.671875 49.734375 63.328125 
Q 46.046875 67 39.203125 67 
L 32.8125 67 
z
" id="DejaVuSerif-Bold-82"/>
       <path d="M 28.078125 5.90625 
L 35.5 5.90625 
L 35.5 0 
L 3.421875 0 
L 3.421875 5.90625 
L 10.796875 5.90625 
L 10.796875 70.125 
L 3.421875 70.125 
L 3.421875 75.984375 
L 28.078125 75.984375 
z
" id="DejaVuSerif-Bold-108"/>
       <path d="M 9.1875 66.609375 
Q 9.1875 70.5625 11.921875 73.265625 
Q 14.65625 75.984375 18.609375 75.984375 
Q 22.46875 75.984375 25.171875 73.265625 
Q 27.875 70.5625 27.875 66.609375 
Q 27.875 62.75 25.171875 60.03125 
Q 22.46875 57.328125 18.609375 57.328125 
Q 14.65625 57.328125 11.921875 60.015625 
Q 9.1875 62.703125 9.1875 66.609375 
z
M 28.078125 5.90625 
L 35.5 5.90625 
L 35.5 0 
L 3.421875 0 
L 3.421875 5.90625 
L 10.796875 5.90625 
L 10.796875 46 
L 3.421875 46 
L 3.421875 51.90625 
L 28.078125 51.90625 
z
" id="DejaVuSerif-Bold-105"/>
       <path d="M 22.3125 0 
L 3.90625 46 
L -1.8125 46 
L -1.8125 51.90625 
L 27.984375 51.90625 
L 27.984375 46 
L 21.6875 46 
L 34.8125 13.1875 
L 47.90625 46 
L 41.109375 46 
L 41.109375 51.90625 
L 60.59375 51.90625 
L 60.59375 46 
L 54.59375 46 
L 36.1875 0 
z
" id="DejaVuSerif-Bold-118"/>
       <path d="M 51.265625 49.421875 
L 54.046875 54.6875 
L 69.1875 54.6875 
L 54.296875 26.515625 
L 54.15625 19.046875 
Q 54 10.984375 57.328125 10.984375 
L 61.328125 10.984375 
L 59.1875 0 
L 54.203125 0 
Q 46.4375 0 43.265625 4.109375 
Q 42.578125 5.03125 42.4375 5.515625 
Q 39.5 2.546875 36.859375 0.640625 
Q 34.234375 -1.21875 23.25 -1.21875 
Q 9.96875 -1.21875 6.0625 6.25 
Q 3.8125 10.546875 3.8125 16.25 
Q 3.8125 21.96875 4.984375 28.03125 
Q 7.765625 42.390625 14.40625 48.25 
Q 23.046875 55.90625 36.71875 55.90625 
Q 47.65625 55.90625 51.265625 49.421875 
z
M 40.53125 28.765625 
L 40.578125 36.71875 
Q 40.671875 44.140625 34.234375 44.1875 
Q 30.953125 44.1875 27.4375 39.984375 
Q 23.921875 35.75 22.21875 27.203125 
Q 21.390625 22.90625 21.390625 19.78125 
Q 21.390625 16.65625 22.265625 14.75 
Q 23.96875 10.796875 27.671875 10.796875 
Q 31.390625 10.796875 35.109375 18.171875 
z
" id="DejaVuSans-BoldOblique-945"/>
       <path d="M 36.71875 40.578125 
Q 43.109375 40.578125 46.40625 43.546875 
Q 49.703125 46.53125 49.703125 52.296875 
Q 49.703125 55.90625 47.4375 57.59375 
Q 45.171875 59.28125 40.28125 59.28125 
L 32.515625 59.28125 
L 28.8125 40.578125 
z
M 26.3125 27.59375 
L 20.90625 0 
L 2.09375 0 
L 16.3125 72.90625 
L 44.09375 72.90625 
Q 56.109375 72.90625 62.296875 68.40625 
Q 68.5 63.921875 68.5 55.171875 
Q 68.5 46.34375 63.609375 40.625 
Q 58.734375 34.90625 50.390625 34.078125 
Q 54.203125 33.296875 56.734375 30.1875 
Q 59.28125 27.09375 61.1875 20.703125 
L 67.390625 0 
L 48.6875 0 
L 43.21875 18.109375 
Q 41.546875 23.53125 39.171875 25.5625 
Q 36.8125 27.59375 32.328125 27.59375 
z
" id="DejaVuSans-BoldOblique-82"/>
       <path d="M 10.203125 18.890625 
L 27.78125 18.890625 
L 27.78125 4 
L 15.71875 -14.203125 
L 5.328125 -14.203125 
L 10.203125 4 
z
" id="DejaVuSans-Bold-44"/>
       <path d="M 68.109375 5.421875 
Q 60.984375 1.953125 53.3125 0.265625 
Q 45.65625 -1.421875 36.921875 -1.421875 
Q 21.390625 -1.421875 12.5 6.46875 
Q 3.609375 14.359375 3.609375 27.984375 
Q 3.609375 36.8125 6.390625 44.546875 
Q 9.1875 52.296875 14.703125 58.6875 
Q 21.4375 66.5 30.59375 70.359375 
Q 39.75 74.21875 51.515625 74.21875 
Q 58.0625 74.21875 64.703125 72.84375 
Q 71.34375 71.484375 77.78125 68.796875 
L 74.90625 53.71875 
Q 68.953125 57.171875 63.25 58.875 
Q 57.5625 60.59375 51.8125 60.59375 
Q 39.203125 60.59375 31.296875 52.1875 
Q 23.390625 43.796875 23.390625 30.609375 
Q 23.390625 21.875 28 17.03125 
Q 32.625 12.203125 41.015625 12.203125 
Q 43.75 12.203125 46.484375 12.5625 
Q 49.21875 12.9375 52 13.71875 
L 54.78125 27.875 
L 43.3125 27.875 
L 45.703125 40.484375 
L 74.90625 40.484375 
z
" id="DejaVuSans-BoldOblique-71"/>
      </defs>
      <use transform="translate(0 0.015625)" xlink:href="#DejaVuSerif-Bold-82"/>
      <use transform="translate(83.105469 0.015625)" xlink:href="#DejaVuSerif-Bold-101"/>
      <use transform="translate(146.728516 0.015625)" xlink:href="#DejaVuSerif-Bold-108"/>
      <use transform="translate(184.716797 0.015625)" xlink:href="#DejaVuSerif-Bold-97"/>
      <use transform="translate(249.511719 0.015625)" xlink:href="#DejaVuSerif-Bold-116"/>
      <use transform="translate(295.703125 0.015625)" xlink:href="#DejaVuSerif-Bold-105"/>
      <use transform="translate(333.691406 0.015625)" xlink:href="#DejaVuSerif-Bold-118"/>
      <use transform="translate(391.796875 0.015625)" xlink:href="#DejaVuSerif-Bold-101"/>
      <use transform="translate(455.419922 0.015625)" xlink:href="#DejaVuSerif-Bold-32"/>
      <use transform="translate(490.234375 0.015625)" xlink:href="#DejaVuSans-BoldOblique-945"/>
      <use transform="translate(558.935547 -16.390625)scale(0.7)" xlink:href="#DejaVuSans-BoldOblique-82"/>
      <use transform="translate(612.836914 -16.390625)scale(0.7)" xlink:href="#DejaVuSans-Bold-44"/>
      <use transform="translate(654.016602 -16.390625)scale(0.7)" xlink:href="#DejaVuSans-BoldOblique-71"/>
     </g>
    </g>
   </g>
   <g id="PathCollection_1">
    <path clip-path="url(#p6541576052)" d="M 487.002804 340.350148 
L 500.23156 313.892635 
L 473.774047 313.892635 
z
" style="fill:none;stroke:#088408;stroke-width:5;"/>
    <path clip-path="url(#p6541576052)" d="M 475.18268 309.446268 
L 488.411436 282.988755 
L 461.953923 282.988755 
z
" style="fill:none;stroke:#088408;stroke-width:5;"/>
    <path clip-path="url(#p6541576052)" d="M 301.133219 69.389055 
L 314.361976 42.931542 
L 287.904463 42.931542 
z
" style="fill:none;stroke:#088408;stroke-width:5;"/>
    <path clip-path="url(#p6541576052)" d="M 270.093181 106.8455 
L 283.321938 80.387987 
L 256.864425 80.387987 
z
" style="fill:none;stroke:#088408;stroke-width:5;"/>
    <path clip-path="url(#p6541576052)" d="M 232.576225 148.226427 
L 245.804981 121.768914 
L 219.347468 121.768914 
z
" style="fill:none;stroke:#088408;stroke-width:5;"/>
    <path clip-path="url(#p6541576052)" d="M 219.52854 143.02838 
L 232.757296 116.570866 
L 206.299783 116.570866 
z
" style="fill:none;stroke:#088408;stroke-width:5;"/>
    <path clip-path="url(#p6541576052)" d="M 211.544535 384.606938 
L 224.773291 358.149425 
L 198.315778 358.149425 
z
" style="fill:none;stroke:#088408;stroke-width:5;"/>
    <path clip-path="url(#p6541576052)" d="M 205.982506 422.620586 
L 219.211262 396.163073 
L 192.753749 396.163073 
z
" style="fill:none;stroke:#088408;stroke-width:5;"/>
    <path clip-path="url(#p6541576052)" d="M 202.167194 406.214578 
L 215.39595 379.757065 
L 188.938437 379.757065 
z
" style="fill:none;stroke:#088408;stroke-width:5;"/>
    <path clip-path="url(#p6541576052)" d="M 212.870058 377.681197 
L 226.098815 351.223684 
L 199.641301 351.223684 
z
" style="fill:none;stroke:#088408;stroke-width:5;"/>
    <path clip-path="url(#p6541576052)" d="M 208.328513 373.799273 
L 221.557269 347.34176 
L 195.099756 347.34176 
z
" style="fill:none;stroke:#088408;stroke-width:5;"/>
    <path clip-path="url(#p6541576052)" d="M 213.68192 370.698736 
L 226.910677 344.241223 
L 200.453164 344.241223 
z
" style="fill:none;stroke:#088408;stroke-width:5;"/>
    <path clip-path="url(#p6541576052)" d="M 212.607393 372.310476 
L 225.83615 345.852963 
L 199.378637 345.852963 
z
" style="fill:none;stroke:#088408;stroke-width:5;"/>
    <path clip-path="url(#p6541576052)" d="M 389.488945 388.5926 
L 402.717702 362.135087 
L 376.260189 362.135087 
z
" style="fill:none;stroke:#088408;stroke-width:5;"/>
    <path clip-path="url(#p6541576052)" d="M 409.909404 362.262361 
L 423.138161 335.804847 
L 396.680648 335.804847 
z
" style="fill:none;stroke:#088408;stroke-width:5;"/>
    <path clip-path="url(#p6541576052)" d="M 470.753105 322.692438 
L 483.981862 296.234925 
L 457.524349 296.234925 
z
" style="fill:none;stroke:#088408;stroke-width:5;"/>
    <path clip-path="url(#p6541576052)" d="M 476.043457 317.313886 
L 489.272213 290.856373 
L 462.8147 290.856373 
z
" style="fill:none;stroke:#088408;stroke-width:5;"/>
   </g>
   <g id="PathCollection_2">
    <path clip-path="url(#p6541576052)" d="M 498.899754 427.15149 
L 512.12851 400.693977 
L 485.670997 400.693977 
z
" style="fill:none;stroke:#ff6000;stroke-width:5;"/>
    <path clip-path="url(#p6541576052)" d="M 461.822478 419.035604 
L 475.051235 392.578091 
L 448.593722 392.578091 
z
" style="fill:none;stroke:#ff6000;stroke-width:5;"/>
    <path clip-path="url(#p6541576052)" d="M 331.005824 382.477045 
L 344.234581 356.019532 
L 317.777068 356.019532 
z
" style="fill:none;stroke:#ff6000;stroke-width:5;"/>
    <path clip-path="url(#p6541576052)" d="M 243.12345 408.753332 
L 256.352207 382.295819 
L 229.894694 382.295819 
z
" style="fill:none;stroke:#ff6000;stroke-width:5;"/>
    <path clip-path="url(#p6541576052)" d="M 224.040159 421.0039 
L 237.268916 394.546387 
L 210.811402 394.546387 
z
" style="fill:none;stroke:#ff6000;stroke-width:5;"/>
    <path clip-path="url(#p6541576052)" d="M 210.968289 399.226056 
L 224.197045 372.768543 
L 197.739532 372.768543 
z
" style="fill:none;stroke:#ff6000;stroke-width:5;"/>
    <path clip-path="url(#p6541576052)" d="M 207.548314 422.787834 
L 220.777071 396.330321 
L 194.319558 396.330321 
z
" style="fill:none;stroke:#ff6000;stroke-width:5;"/>
    <path clip-path="url(#p6541576052)" d="M 207.396139 436.595021 
L 220.624896 410.137508 
L 194.167383 410.137508 
z
" style="fill:none;stroke:#ff6000;stroke-width:5;"/>
    <path clip-path="url(#p6541576052)" d="M 203.739165 432.396002 
L 216.967921 405.938489 
L 190.510408 405.938489 
z
" style="fill:none;stroke:#ff6000;stroke-width:5;"/>
    <path clip-path="url(#p6541576052)" d="M 213.901823 420.466481 
L 227.130579 394.008968 
L 200.673066 394.008968 
z
" style="fill:none;stroke:#ff6000;stroke-width:5;"/>
    <path clip-path="url(#p6541576052)" d="M 210.428344 424.752119 
L 223.6571 398.294606 
L 197.199587 398.294606 
z
" style="fill:none;stroke:#ff6000;stroke-width:5;"/>
    <path clip-path="url(#p6541576052)" d="M 214.805081 417.793335 
L 228.033838 391.335822 
L 201.576325 391.335822 
z
" style="fill:none;stroke:#ff6000;stroke-width:5;"/>
    <path clip-path="url(#p6541576052)" d="M 209.871682 426.23421 
L 223.100438 399.776697 
L 196.642925 399.776697 
z
" style="fill:none;stroke:#ff6000;stroke-width:5;"/>
    <path clip-path="url(#p6541576052)" d="M 412.214706 261.806004 
L 425.443462 235.348491 
L 398.985949 235.348491 
z
" style="fill:none;stroke:#ff6000;stroke-width:5;"/>
    <path clip-path="url(#p6541576052)" d="M 423.68704 369.320483 
L 436.915797 342.86297 
L 410.458284 342.86297 
z
" style="fill:none;stroke:#ff6000;stroke-width:5;"/>
    <path clip-path="url(#p6541576052)" d="M 489.133964 404.856619 
L 502.362721 378.399106 
L 475.905208 378.399106 
z
" style="fill:none;stroke:#ff6000;stroke-width:5;"/>
    <path clip-path="url(#p6541576052)" d="M 493.240565 424.504969 
L 506.469321 398.047456 
L 480.011808 398.047456 
z
" style="fill:none;stroke:#ff6000;stroke-width:5;"/>
   </g>
   <g id="line2d_7">
    <path clip-path="url(#p6541576052)" d="M 487.002804 327.121391 
L 475.18268 296.217512 
L 301.133219 56.160298 
L 270.093181 93.616743 
L 232.576225 134.997671 
L 219.52854 129.799623 
L 211.544535 371.378181 
L 205.982506 409.39183 
L 202.167194 392.985822 
L 212.870058 364.452441 
L 208.328513 360.570517 
L 213.68192 357.469979 
L 212.607393 359.081719 
L 389.488945 375.363843 
L 409.909404 349.033604 
L 470.753105 309.463682 
L 476.043457 304.085129 
" style="fill:none;stroke:#1f77b4;stroke-dasharray:3.7,1.6;stroke-dashoffset:0;"/>
   </g>
   <g id="line2d_8">
    <path clip-path="url(#p6541576052)" d="M 498.899754 413.922734 
L 461.822478 405.806848 
L 331.005824 369.248288 
L 243.12345 395.524576 
L 224.040159 407.775143 
L 210.968289 385.997299 
L 207.548314 409.559078 
L 207.396139 423.366264 
L 203.739165 419.167245 
L 213.901823 407.237725 
L 210.428344 411.523362 
L 214.805081 404.564579 
L 209.871682 413.005453 
L 412.214706 248.577248 
L 423.68704 356.091727 
L 489.133964 391.627862 
L 493.240565 411.276213 
" style="fill:none;stroke:#ff7f0e;stroke-dasharray:3.7,1.6;stroke-dashoffset:0;"/>
   </g>
   <g id="patch_3">
    <path d="M 172.407031 441.726562 
L 172.407031 37.8 
" style="fill:none;stroke:#000000;stroke-linecap:square;stroke-linejoin:miter;stroke-width:6;"/>
   </g>
   <g id="patch_4">
    <path d="M 563.600911 441.726562 
L 563.600911 37.8 
" style="fill:none;stroke:#000000;stroke-linecap:square;stroke-linejoin:miter;stroke-width:6;"/>
   </g>
   <g id="patch_5">
    <path d="M 172.407031 441.726562 
L 563.600911 441.726562 
" style="fill:none;stroke:#000000;stroke-linecap:square;stroke-linejoin:miter;stroke-width:6;"/>
   </g>
   <g id="patch_6">
    <path d="M 172.407031 37.8 
L 563.600911 37.8 
" style="fill:none;stroke:#000000;stroke-linecap:square;stroke-linejoin:miter;stroke-width:6;"/>
   </g>
  </g>
  <g id="axes_2">
   <g id="patch_7">
    <path d="M 765.61849 441.726562 
L 1156.81237 441.726562 
L 1156.81237 37.8 
L 765.61849 37.8 
z
" style="fill:none;"/>
   </g>
   <g id="matplotlib.axis_3">
    <g id="xtick_4">
     <g id="line2d_9">
      <g>
       <use style="fill:#262626;stroke:#262626;stroke-width:5;" x="765.61849" xlink:href="#m7128f91161" y="441.726562"/>
      </g>
     </g>
     <g id="text_9">
      <!-- 0 -->
      <g style="fill:#262626;" transform="translate(753.442318 489.821094)scale(0.35 -0.35)">
       <use xlink:href="#DejaVuSerif-Bold-48"/>
      </g>
     </g>
    </g>
    <g id="xtick_5">
     <g id="line2d_10">
      <g>
       <use style="fill:#262626;stroke:#262626;stroke-width:5;" x="961.21543" xlink:href="#m7128f91161" y="441.726562"/>
      </g>
     </g>
     <g id="text_10">
      <!-- 1 -->
      <g style="fill:#262626;" transform="translate(949.039258 489.821094)scale(0.35 -0.35)">
       <use xlink:href="#DejaVuSerif-Bold-49"/>
      </g>
     </g>
    </g>
    <g id="xtick_6">
     <g id="line2d_11">
      <g>
       <use style="fill:#262626;stroke:#262626;stroke-width:5;" x="1156.81237" xlink:href="#m7128f91161" y="441.726562"/>
      </g>
     </g>
     <g id="text_11">
      <!-- 2 -->
      <g style="fill:#262626;" transform="translate(1144.636198 489.821094)scale(0.35 -0.35)">
       <use xlink:href="#DejaVuSerif-Bold-50"/>
      </g>
     </g>
    </g>
    <g id="text_12">
     <!-- Growth rate ($h^{-1}$) -->
     <g style="fill:#262626;" transform="translate(787.79043 530.921094)scale(0.35 -0.35)">
      <use transform="translate(0 0.684375)" xlink:href="#DejaVuSerif-Bold-71"/>
      <use transform="translate(85.400391 0.684375)" xlink:href="#DejaVuSerif-Bold-114"/>
      <use transform="translate(138.085938 0.684375)" xlink:href="#DejaVuSerif-Bold-111"/>
      <use transform="translate(204.785156 0.684375)" xlink:href="#DejaVuSerif-Bold-119"/>
      <use transform="translate(290.869141 0.684375)" xlink:href="#DejaVuSerif-Bold-116"/>
      <use transform="translate(337.060547 0.684375)" xlink:href="#DejaVuSerif-Bold-104"/>
      <use transform="translate(409.765625 0.684375)" xlink:href="#DejaVuSerif-Bold-32"/>
      <use transform="translate(444.580078 0.684375)" xlink:href="#DejaVuSerif-Bold-114"/>
      <use transform="translate(497.265625 0.684375)" xlink:href="#DejaVuSerif-Bold-97"/>
      <use transform="translate(562.060547 0.684375)" xlink:href="#DejaVuSerif-Bold-116"/>
      <use transform="translate(608.251953 0.684375)" xlink:href="#DejaVuSerif-Bold-101"/>
      <use transform="translate(671.875 0.684375)" xlink:href="#DejaVuSerif-Bold-32"/>
      <use transform="translate(706.689453 0.684375)" xlink:href="#DejaVuSerif-Bold-40"/>
      <use transform="translate(754.003906 0.684375)" xlink:href="#DejaVuSans-BoldOblique-104"/>
      <use transform="translate(832.643021 38.965625)scale(0.7)" xlink:href="#DejaVuSans-Bold-8722"/>
      <use transform="translate(891.295365 38.965625)scale(0.7)" xlink:href="#DejaVuSans-Bold-49"/>
      <use transform="translate(942.735794 0.684375)" xlink:href="#DejaVuSerif-Bold-41"/>
     </g>
    </g>
   </g>
   <g id="matplotlib.axis_4">
    <g id="ytick_4">
     <g id="line2d_12">
      <g>
       <use style="fill:#262626;stroke:#262626;stroke-width:5;" x="765.61849" xlink:href="#m77b5c1a269" y="437.835705"/>
      </g>
     </g>
     <g id="text_13">
      <!-- 0 -->
      <g style="fill:#262626;" transform="translate(719.766146 451.132971)scale(0.35 -0.35)">
       <use xlink:href="#DejaVuSerif-Bold-48"/>
      </g>
     </g>
    </g>
    <g id="ytick_5">
     <g id="line2d_13">
      <g>
       <use style="fill:#262626;stroke:#262626;stroke-width:5;" x="765.61849" xlink:href="#m77b5c1a269" y="297.39228"/>
      </g>
     </g>
     <g id="text_14">
      <!-- 200 -->
      <g style="fill:#262626;" transform="translate(671.061458 310.689545)scale(0.35 -0.35)">
       <use xlink:href="#DejaVuSerif-Bold-50"/>
       <use x="69.580078" xlink:href="#DejaVuSerif-Bold-48"/>
       <use x="139.160156" xlink:href="#DejaVuSerif-Bold-48"/>
      </g>
     </g>
    </g>
    <g id="ytick_6">
     <g id="line2d_14">
      <g>
       <use style="fill:#262626;stroke:#262626;stroke-width:5;" x="765.61849" xlink:href="#m77b5c1a269" y="156.948854"/>
      </g>
     </g>
     <g id="text_15">
      <!-- 400 -->
      <g style="fill:#262626;" transform="translate(671.061458 170.24612)scale(0.35 -0.35)">
       <defs>
        <path d="M 63.8125 0 
L 23.6875 0 
L 23.6875 5.90625 
L 34.515625 5.90625 
L 34.515625 19.1875 
L 4.109375 19.1875 
L 4.109375 24.8125 
L 34.625 74.21875 
L 52.984375 74.21875 
L 52.984375 25.484375 
L 65.484375 25.484375 
L 65.484375 19.1875 
L 52.984375 19.1875 
L 52.984375 5.90625 
L 63.8125 5.90625 
z
M 34.515625 25.484375 
L 34.515625 60.890625 
L 12.796875 25.484375 
z
" id="DejaVuSerif-Bold-52"/>
       </defs>
       <use xlink:href="#DejaVuSerif-Bold-52"/>
       <use x="69.580078" xlink:href="#DejaVuSerif-Bold-48"/>
       <use x="139.160156" xlink:href="#DejaVuSerif-Bold-48"/>
      </g>
     </g>
    </g>
    <g id="text_16">
     <!-- Relative $\widetilde{\alpha}_{R,G}$ -->
     <g style="fill:#262626;" transform="translate(657.611458 365.063281)rotate(-90)scale(0.35 -0.35)">
      <defs>
       <path d="M -18.59375 78 
L -15.703125 78 
Q -17.09375 72.59375 -26 68.75 
Q -34.90625 64.90625 -45.65625 63.296875 
Q -56.40625 61.703125 -67.296875 61.703125 
Q -105.703125 61.703125 -147.40625 68 
Q -156.90625 69.5 -172.65625 70.453125 
Q -188.40625 71.40625 -194.796875 71.40625 
Q -202.90625 71.40625 -213.59375 70.40625 
Q -224.296875 69.40625 -234.1875 67.046875 
Q -244.09375 64.703125 -245.59375 61.703125 
L -248.5 61.703125 
Q -246.90625 67.203125 -236.59375 71.09375 
Q -226.296875 75 -214.9375 76.5 
Q -203.59375 78 -193.40625 78 
Q -184.09375 78 -160.5 76.203125 
Q -136.90625 74.40625 -118.90625 71.59375 
Q -109.59375 70.203125 -90.890625 69.25 
Q -72.203125 68.296875 -64.5 68.296875 
Q -50.5 68.296875 -35.453125 70.890625 
Q -20.40625 73.5 -18.59375 78 
z
" id="STIXSizeFiveSym-Regular-771"/>
      </defs>
      <use transform="translate(0 0.015625)" xlink:href="#DejaVuSerif-Bold-82"/>
      <use transform="translate(83.105469 0.015625)" xlink:href="#DejaVuSerif-Bold-101"/>
      <use transform="translate(146.728516 0.015625)" xlink:href="#DejaVuSerif-Bold-108"/>
      <use transform="translate(184.716797 0.015625)" xlink:href="#DejaVuSerif-Bold-97"/>
      <use transform="translate(249.511719 0.015625)" xlink:href="#DejaVuSerif-Bold-116"/>
      <use transform="translate(295.703125 0.015625)" xlink:href="#DejaVuSerif-Bold-105"/>
      <use transform="translate(333.691406 0.015625)" xlink:href="#DejaVuSerif-Bold-118"/>
      <use transform="translate(391.796875 0.015625)" xlink:href="#DejaVuSerif-Bold-101"/>
      <use transform="translate(455.419922 0.015625)" xlink:href="#DejaVuSerif-Bold-32"/>
      <use transform="translate(571.722168 50.21875)scale(0.295112)" xlink:href="#STIXSizeFiveSym-Regular-771"/>
      <use transform="translate(490.234375 0.015625)" xlink:href="#DejaVuSans-BoldOblique-945"/>
      <use transform="translate(559.892578 -16.390625)scale(0.7)" xlink:href="#DejaVuSans-BoldOblique-82"/>
      <use transform="translate(613.793945 -16.390625)scale(0.7)" xlink:href="#DejaVuSans-Bold-44"/>
      <use transform="translate(654.973633 -16.390625)scale(0.7)" xlink:href="#DejaVuSans-BoldOblique-71"/>
     </g>
    </g>
   </g>
   <g id="PathCollection_3">
    <path clip-path="url(#p65f64b6436)" d="M 1080.214262 423.170033 
L 1093.443018 396.71252 
L 1066.985505 396.71252 
z
" style="fill:none;stroke:#088408;stroke-width:5;"/>
    <path clip-path="url(#p65f64b6436)" d="M 1068.394138 417.317182 
L 1081.622895 390.859669 
L 1055.165382 390.859669 
z
" style="fill:none;stroke:#088408;stroke-width:5;"/>
    <path clip-path="url(#p65f64b6436)" d="M 894.344677 284.648372 
L 907.573434 258.190859 
L 881.115921 258.190859 
z
" style="fill:none;stroke:#088408;stroke-width:5;"/>
    <path clip-path="url(#p65f64b6436)" d="M 863.30464 249.665449 
L 876.533396 223.207936 
L 850.075883 223.207936 
z
" style="fill:none;stroke:#088408;stroke-width:5;"/>
    <path clip-path="url(#p65f64b6436)" d="M 825.787683 156.187465 
L 839.01644 129.729952 
L 812.558927 129.729952 
z
" style="fill:none;stroke:#088408;stroke-width:5;"/>
    <path clip-path="url(#p65f64b6436)" d="M 812.739998 69.389055 
L 825.968755 42.931542 
L 799.511242 42.931542 
z
" style="fill:none;stroke:#088408;stroke-width:5;"/>
    <path clip-path="url(#p65f64b6436)" d="M 804.755993 279.62122 
L 817.98475 253.163706 
L 791.527237 253.163706 
z
" style="fill:none;stroke:#088408;stroke-width:5;"/>
    <path clip-path="url(#p65f64b6436)" d="M 799.193964 304.063133 
L 812.42272 277.60562 
L 785.965207 277.60562 
z
" style="fill:none;stroke:#088408;stroke-width:5;"/>
    <path clip-path="url(#p65f64b6436)" d="M 795.378652 259.487505 
L 808.607408 233.029992 
L 782.149895 233.029992 
z
" style="fill:none;stroke:#088408;stroke-width:5;"/>
    <path clip-path="url(#p65f64b6436)" d="M 806.081516 277.248808 
L 819.310273 250.791295 
L 792.85276 250.791295 
z
" style="fill:none;stroke:#088408;stroke-width:5;"/>
    <path clip-path="url(#p65f64b6436)" d="M 801.539971 250.229497 
L 814.768728 223.771984 
L 788.311215 223.771984 
z
" style="fill:none;stroke:#088408;stroke-width:5;"/>
    <path clip-path="url(#p65f64b6436)" d="M 806.893378 272.771996 
L 820.122135 246.314483 
L 793.664622 246.314483 
z
" style="fill:none;stroke:#088408;stroke-width:5;"/>
    <path clip-path="url(#p65f64b6436)" d="M 805.818852 269.877623 
L 819.047608 243.42011 
L 792.590095 243.42011 
z
" style="fill:none;stroke:#088408;stroke-width:5;"/>
    <path clip-path="url(#p65f64b6436)" d="M 982.700404 421.012043 
L 995.92916 394.55453 
L 969.471647 394.55453 
z
" style="fill:none;stroke:#088408;stroke-width:5;"/>
    <path clip-path="url(#p65f64b6436)" d="M 1003.120863 418.42161 
L 1016.349619 391.964096 
L 989.892106 391.964096 
z
" style="fill:none;stroke:#088408;stroke-width:5;"/>
    <path clip-path="url(#p65f64b6436)" d="M 1063.964564 418.888364 
L 1077.19332 392.430851 
L 1050.735807 392.430851 
z
" style="fill:none;stroke:#088408;stroke-width:5;"/>
    <path clip-path="url(#p65f64b6436)" d="M 1069.254915 418.622218 
L 1082.483671 392.164705 
L 1056.026158 392.164705 
z
" style="fill:none;stroke:#088408;stroke-width:5;"/>
   </g>
   <g id="PathCollection_4">
    <path clip-path="url(#p65f64b6436)" d="M 1092.111212 436.595021 
L 1105.339969 410.137508 
L 1078.882455 410.137508 
z
" style="fill:none;stroke:#ff6000;stroke-width:5;"/>
    <path clip-path="url(#p65f64b6436)" d="M 1055.033937 433.4325 
L 1068.262693 406.974987 
L 1041.80518 406.974987 
z
" style="fill:none;stroke:#ff6000;stroke-width:5;"/>
    <path clip-path="url(#p65f64b6436)" d="M 924.217283 408.130531 
L 937.446039 381.673018 
L 910.988526 381.673018 
z
" style="fill:none;stroke:#ff6000;stroke-width:5;"/>
    <path clip-path="url(#p65f64b6436)" d="M 836.334909 372.117175 
L 849.563665 345.659662 
L 823.106152 345.659662 
z
" style="fill:none;stroke:#ff6000;stroke-width:5;"/>
    <path clip-path="url(#p65f64b6436)" d="M 817.251617 354.012518 
L 830.480374 327.555005 
L 804.022861 327.555005 
z
" style="fill:none;stroke:#ff6000;stroke-width:5;"/>
    <path clip-path="url(#p65f64b6436)" d="M 804.179747 294.753727 
L 817.408504 268.296214 
L 790.950991 268.296214 
z
" style="fill:none;stroke:#ff6000;stroke-width:5;"/>
    <path clip-path="url(#p65f64b6436)" d="M 800.759773 310.835281 
L 813.988529 284.377768 
L 787.531016 284.377768 
z
" style="fill:none;stroke:#ff6000;stroke-width:5;"/>
    <path clip-path="url(#p65f64b6436)" d="M 800.607598 328.643312 
L 813.836354 302.185799 
L 787.378841 302.185799 
z
" style="fill:none;stroke:#ff6000;stroke-width:5;"/>
    <path clip-path="url(#p65f64b6436)" d="M 796.950623 308.099772 
L 810.17938 281.642259 
L 783.721867 281.642259 
z
" style="fill:none;stroke:#ff6000;stroke-width:5;"/>
    <path clip-path="url(#p65f64b6436)" d="M 807.113281 329.695531 
L 820.342038 303.238018 
L 793.884525 303.238018 
z
" style="fill:none;stroke:#ff6000;stroke-width:5;"/>
    <path clip-path="url(#p65f64b6436)" d="M 803.639802 323.868596 
L 816.868559 297.411083 
L 790.411046 297.411083 
z
" style="fill:none;stroke:#ff6000;stroke-width:5;"/>
    <path clip-path="url(#p65f64b6436)" d="M 808.01654 329.338512 
L 821.245296 302.880999 
L 794.787783 302.880999 
z
" style="fill:none;stroke:#ff6000;stroke-width:5;"/>
    <path clip-path="url(#p65f64b6436)" d="M 803.08314 323.82506 
L 816.311897 297.367547 
L 789.854384 297.367547 
z
" style="fill:none;stroke:#ff6000;stroke-width:5;"/>
    <path clip-path="url(#p65f64b6436)" d="M 1005.426164 399.183799 
L 1018.654921 372.726286 
L 992.197408 372.726286 
z
" style="fill:none;stroke:#ff6000;stroke-width:5;"/>
    <path clip-path="url(#p65f64b6436)" d="M 1016.898499 421.522401 
L 1030.127255 395.064888 
L 1003.669742 395.064888 
z
" style="fill:none;stroke:#ff6000;stroke-width:5;"/>
    <path clip-path="url(#p65f64b6436)" d="M 1082.345422 432.863478 
L 1095.574179 406.405965 
L 1069.116666 406.405965 
z
" style="fill:none;stroke:#ff6000;stroke-width:5;"/>
    <path clip-path="url(#p65f64b6436)" d="M 1086.452023 435.954791 
L 1099.68078 409.497278 
L 1073.223266 409.497278 
z
" style="fill:none;stroke:#ff6000;stroke-width:5;"/>
   </g>
   <g id="patch_8">
    <path d="M 765.61849 441.726562 
L 765.61849 37.8 
" style="fill:none;stroke:#000000;stroke-linecap:square;stroke-linejoin:miter;stroke-width:6;"/>
   </g>
   <g id="patch_9">
    <path d="M 1156.81237 441.726562 
L 1156.81237 37.8 
" style="fill:none;stroke:#000000;stroke-linecap:square;stroke-linejoin:miter;stroke-width:6;"/>
   </g>
   <g id="patch_10">
    <path d="M 765.61849 441.726562 
L 1156.81237 441.726562 
" style="fill:none;stroke:#000000;stroke-linecap:square;stroke-linejoin:miter;stroke-width:6;"/>
   </g>
   <g id="patch_11">
    <path d="M 765.61849 37.8 
L 1156.81237 37.8 
" style="fill:none;stroke:#000000;stroke-linecap:square;stroke-linejoin:miter;stroke-width:6;"/>
   </g>
  </g>
  <g id="axes_3">
   <g id="patch_12">
    <path d="M 1358.829948 441.726562 
L 1750.023828 441.726562 
L 1750.023828 37.8 
L 1358.829948 37.8 
z
" style="fill:none;"/>
   </g>
   <g id="matplotlib.axis_5">
    <g id="xtick_7">
     <g id="line2d_15">
      <g>
       <use style="fill:#262626;stroke:#262626;stroke-width:5;" x="1358.829948" xlink:href="#m7128f91161" y="441.726562"/>
      </g>
     </g>
     <g id="text_17">
      <!-- 0 -->
      <g style="fill:#262626;" transform="translate(1346.653776 489.821094)scale(0.35 -0.35)">
       <use xlink:href="#DejaVuSerif-Bold-48"/>
      </g>
     </g>
    </g>
    <g id="xtick_8">
     <g id="line2d_16">
      <g>
       <use style="fill:#262626;stroke:#262626;stroke-width:5;" x="1554.426888" xlink:href="#m7128f91161" y="441.726562"/>
      </g>
     </g>
     <g id="text_18">
      <!-- 1 -->
      <g style="fill:#262626;" transform="translate(1542.250716 489.821094)scale(0.35 -0.35)">
       <use xlink:href="#DejaVuSerif-Bold-49"/>
      </g>
     </g>
    </g>
    <g id="xtick_9">
     <g id="line2d_17">
      <g>
       <use style="fill:#262626;stroke:#262626;stroke-width:5;" x="1750.023828" xlink:href="#m7128f91161" y="441.726562"/>
      </g>
     </g>
     <g id="text_19">
      <!-- 2 -->
      <g style="fill:#262626;" transform="translate(1737.847656 489.821094)scale(0.35 -0.35)">
       <use xlink:href="#DejaVuSerif-Bold-50"/>
      </g>
     </g>
    </g>
    <g id="text_20">
     <!-- Growth rate ($h^{-1}$) -->
     <g style="fill:#262626;" transform="translate(1381.001888 530.921094)scale(0.35 -0.35)">
      <use transform="translate(0 0.684375)" xlink:href="#DejaVuSerif-Bold-71"/>
      <use transform="translate(85.400391 0.684375)" xlink:href="#DejaVuSerif-Bold-114"/>
      <use transform="translate(138.085938 0.684375)" xlink:href="#DejaVuSerif-Bold-111"/>
      <use transform="translate(204.785156 0.684375)" xlink:href="#DejaVuSerif-Bold-119"/>
      <use transform="translate(290.869141 0.684375)" xlink:href="#DejaVuSerif-Bold-116"/>
      <use transform="translate(337.060547 0.684375)" xlink:href="#DejaVuSerif-Bold-104"/>
      <use transform="translate(409.765625 0.684375)" xlink:href="#DejaVuSerif-Bold-32"/>
      <use transform="translate(444.580078 0.684375)" xlink:href="#DejaVuSerif-Bold-114"/>
      <use transform="translate(497.265625 0.684375)" xlink:href="#DejaVuSerif-Bold-97"/>
      <use transform="translate(562.060547 0.684375)" xlink:href="#DejaVuSerif-Bold-116"/>
      <use transform="translate(608.251953 0.684375)" xlink:href="#DejaVuSerif-Bold-101"/>
      <use transform="translate(671.875 0.684375)" xlink:href="#DejaVuSerif-Bold-32"/>
      <use transform="translate(706.689453 0.684375)" xlink:href="#DejaVuSerif-Bold-40"/>
      <use transform="translate(754.003906 0.684375)" xlink:href="#DejaVuSans-BoldOblique-104"/>
      <use transform="translate(832.643021 38.965625)scale(0.7)" xlink:href="#DejaVuSans-Bold-8722"/>
      <use transform="translate(891.295365 38.965625)scale(0.7)" xlink:href="#DejaVuSans-Bold-49"/>
      <use transform="translate(942.735794 0.684375)" xlink:href="#DejaVuSerif-Bold-41"/>
     </g>
    </g>
   </g>
   <g id="matplotlib.axis_6">
    <g id="ytick_7">
     <g id="line2d_18">
      <g>
       <use style="fill:#262626;stroke:#262626;stroke-width:5;" x="1358.829948" xlink:href="#m77b5c1a269" y="437.835705"/>
      </g>
     </g>
     <g id="text_21">
      <!-- 0.00 -->
      <g style="fill:#262626;" transform="translate(1252.088542 451.132971)scale(0.35 -0.35)">
       <defs>
        <path d="M 8.109375 7.90625 
Q 8.109375 11.71875 10.84375 14.453125 
Q 13.578125 17.1875 17.390625 17.1875 
Q 21.234375 17.1875 23.96875 14.453125 
Q 26.703125 11.71875 26.703125 7.90625 
Q 26.703125 4.046875 23.96875 1.3125 
Q 21.234375 -1.421875 17.390625 -1.421875 
Q 13.578125 -1.421875 10.84375 1.3125 
Q 8.109375 4.046875 8.109375 7.90625 
z
" id="DejaVuSerif-Bold-46"/>
       </defs>
       <use xlink:href="#DejaVuSerif-Bold-48"/>
       <use x="69.580078" xlink:href="#DejaVuSerif-Bold-46"/>
       <use x="104.394531" xlink:href="#DejaVuSerif-Bold-48"/>
       <use x="173.974609" xlink:href="#DejaVuSerif-Bold-48"/>
      </g>
     </g>
    </g>
    <g id="ytick_8">
     <g id="line2d_19">
      <g>
       <use style="fill:#262626;stroke:#262626;stroke-width:5;" x="1358.829948" xlink:href="#m77b5c1a269" y="280.544473"/>
      </g>
     </g>
     <g id="text_22">
      <!-- 0.02 -->
      <g style="fill:#262626;" transform="translate(1252.088542 293.841739)scale(0.35 -0.35)">
       <use xlink:href="#DejaVuSerif-Bold-48"/>
       <use x="69.580078" xlink:href="#DejaVuSerif-Bold-46"/>
       <use x="104.394531" xlink:href="#DejaVuSerif-Bold-48"/>
       <use x="173.974609" xlink:href="#DejaVuSerif-Bold-50"/>
      </g>
     </g>
    </g>
    <g id="ytick_9">
     <g id="line2d_20">
      <g>
       <use style="fill:#262626;stroke:#262626;stroke-width:5;" x="1358.829948" xlink:href="#m77b5c1a269" y="123.253242"/>
      </g>
     </g>
     <g id="text_23">
      <!-- 0.04 -->
      <g style="fill:#262626;" transform="translate(1252.088542 136.550507)scale(0.35 -0.35)">
       <use xlink:href="#DejaVuSerif-Bold-48"/>
       <use x="69.580078" xlink:href="#DejaVuSerif-Bold-46"/>
       <use x="104.394531" xlink:href="#DejaVuSerif-Bold-48"/>
       <use x="173.974609" xlink:href="#DejaVuSerif-Bold-52"/>
      </g>
     </g>
    </g>
    <g id="text_24">
     <!-- Relative $\widetilde{K}_{DR,DG}$ -->
     <g style="fill:#262626;" transform="translate(1238.638542 386.938281)rotate(-90)scale(0.35 -0.35)">
      <defs>
       <path d="M 16.3125 72.90625 
L 35.109375 72.90625 
L 29.984375 46.6875 
L 60.984375 72.90625 
L 83.6875 72.90625 
L 41.890625 37.5 
L 73.390625 0 
L 51.3125 0 
L 26.8125 30.421875 
L 20.90625 0 
L 2.09375 0 
z
" id="DejaVuSans-BoldOblique-75"/>
       <path d="M 32.421875 58.6875 
L 23.6875 14.203125 
L 30.421875 14.203125 
Q 43.5625 14.203125 51.21875 21.578125 
Q 58.890625 28.953125 58.890625 41.5 
Q 58.890625 50 53.875 54.34375 
Q 48.875 58.6875 39.015625 58.6875 
z
M 16.3125 72.90625 
L 36.078125 72.90625 
Q 50.25 72.90625 57.328125 71.21875 
Q 64.40625 69.53125 69.09375 65.578125 
Q 73.828125 61.625 76.21875 55.984375 
Q 78.609375 50.34375 78.609375 43.21875 
Q 78.609375 33.296875 74.53125 24.53125 
Q 70.453125 15.765625 63.09375 9.8125 
Q 56.640625 4.5 48.109375 2.25 
Q 39.59375 0 21.921875 0 
L 2.09375 0 
z
" id="DejaVuSans-BoldOblique-68"/>
      </defs>
      <use transform="translate(0 0.171875)" xlink:href="#DejaVuSerif-Bold-82"/>
      <use transform="translate(83.105469 0.171875)" xlink:href="#DejaVuSerif-Bold-101"/>
      <use transform="translate(146.728516 0.171875)" xlink:href="#DejaVuSerif-Bold-108"/>
      <use transform="translate(184.716797 0.171875)" xlink:href="#DejaVuSerif-Bold-97"/>
      <use transform="translate(249.511719 0.171875)" xlink:href="#DejaVuSerif-Bold-116"/>
      <use transform="translate(295.703125 0.171875)" xlink:href="#DejaVuSerif-Bold-105"/>
      <use transform="translate(333.691406 0.171875)" xlink:href="#DejaVuSerif-Bold-118"/>
      <use transform="translate(391.796875 0.171875)" xlink:href="#DejaVuSerif-Bold-101"/>
      <use transform="translate(455.419922 0.171875)" xlink:href="#DejaVuSerif-Bold-32"/>
      <use transform="translate(582.310059 65.046875)scale(0.332866)" xlink:href="#STIXSizeFiveSym-Regular-771"/>
      <use transform="translate(490.234375 0.171875)" xlink:href="#DejaVuSans-BoldOblique-75"/>
      <use transform="translate(568.681641 -16.234375)scale(0.7)" xlink:href="#DejaVuSans-BoldOblique-68"/>
      <use transform="translate(626.787109 -16.234375)scale(0.7)" xlink:href="#DejaVuSans-BoldOblique-82"/>
      <use transform="translate(680.688477 -16.234375)scale(0.7)" xlink:href="#DejaVuSans-Bold-44"/>
      <use transform="translate(721.868164 -16.234375)scale(0.7)" xlink:href="#DejaVuSans-BoldOblique-68"/>
      <use transform="translate(779.973633 -16.234375)scale(0.7)" xlink:href="#DejaVuSans-BoldOblique-71"/>
     </g>
    </g>
   </g>
   <g id="PathCollection_5">
    <path clip-path="url(#p25ae85b04c)" d="M 1673.42572 253.081207 
L 1686.654477 226.623694 
L 1660.196964 226.623694 
z
" style="fill:none;stroke:#088408;stroke-width:5;"/>
    <path clip-path="url(#p25ae85b04c)" d="M 1661.605596 287.417794 
L 1674.834353 260.960281 
L 1648.37684 260.960281 
z
" style="fill:none;stroke:#088408;stroke-width:5;"/>
    <path clip-path="url(#p25ae85b04c)" d="M 1487.556136 417.878789 
L 1500.784892 391.421276 
L 1474.327379 391.421276 
z
" style="fill:none;stroke:#088408;stroke-width:5;"/>
    <path clip-path="url(#p25ae85b04c)" d="M 1456.516098 423.643127 
L 1469.744855 397.185614 
L 1443.287341 397.185614 
z
" style="fill:none;stroke:#088408;stroke-width:5;"/>
    <path clip-path="url(#p25ae85b04c)" d="M 1418.999142 432.335874 
L 1432.227898 405.878361 
L 1405.770385 405.878361 
z
" style="fill:none;stroke:#088408;stroke-width:5;"/>
    <path clip-path="url(#p25ae85b04c)" d="M 1405.951457 436.595021 
L 1419.180213 410.137508 
L 1392.7227 410.137508 
z
" style="fill:none;stroke:#088408;stroke-width:5;"/>
    <path clip-path="url(#p25ae85b04c)" d="M 1397.967451 418.851878 
L 1411.196208 392.394365 
L 1384.738695 392.394365 
z
" style="fill:none;stroke:#088408;stroke-width:5;"/>
    <path clip-path="url(#p25ae85b04c)" d="M 1392.405422 413.495891 
L 1405.634179 387.038378 
L 1379.176666 387.038378 
z
" style="fill:none;stroke:#088408;stroke-width:5;"/>
    <path clip-path="url(#p25ae85b04c)" d="M 1388.59011 422.237248 
L 1401.818867 395.779735 
L 1375.361354 395.779735 
z
" style="fill:none;stroke:#088408;stroke-width:5;"/>
    <path clip-path="url(#p25ae85b04c)" d="M 1399.292975 419.291548 
L 1412.521731 392.834035 
L 1386.064218 392.834035 
z
" style="fill:none;stroke:#088408;stroke-width:5;"/>
    <path clip-path="url(#p25ae85b04c)" d="M 1394.75143 423.566113 
L 1407.980186 397.1086 
L 1381.522673 397.1086 
z
" style="fill:none;stroke:#088408;stroke-width:5;"/>
    <path clip-path="url(#p25ae85b04c)" d="M 1400.104837 420.089346 
L 1413.333593 393.631833 
L 1386.87608 393.631833 
z
" style="fill:none;stroke:#088408;stroke-width:5;"/>
    <path clip-path="url(#p25ae85b04c)" d="M 1399.03031 420.584158 
L 1412.259067 394.126645 
L 1385.801554 394.126645 
z
" style="fill:none;stroke:#088408;stroke-width:5;"/>
    <path clip-path="url(#p25ae85b04c)" d="M 1575.911862 267.297895 
L 1589.140618 240.840382 
L 1562.683105 240.840382 
z
" style="fill:none;stroke:#088408;stroke-width:5;"/>
    <path clip-path="url(#p25ae85b04c)" d="M 1596.332321 281.881028 
L 1609.561078 255.423515 
L 1583.103564 255.423515 
z
" style="fill:none;stroke:#088408;stroke-width:5;"/>
    <path clip-path="url(#p25ae85b04c)" d="M 1657.176022 279.42681 
L 1670.404778 252.969297 
L 1643.947265 252.969297 
z
" style="fill:none;stroke:#088408;stroke-width:5;"/>
    <path clip-path="url(#p25ae85b04c)" d="M 1662.466373 280.834874 
L 1675.69513 254.377361 
L 1649.237617 254.377361 
z
" style="fill:none;stroke:#088408;stroke-width:5;"/>
   </g>
   <g id="PathCollection_6">
    <path clip-path="url(#p25ae85b04c)" d="M 1685.32267 69.389055 
L 1698.551427 42.931542 
L 1672.093914 42.931542 
z
" style="fill:none;stroke:#ff6000;stroke-width:5;"/>
    <path clip-path="url(#p25ae85b04c)" d="M 1648.245395 137.847484 
L 1661.474151 111.389971 
L 1635.016638 111.389971 
z
" style="fill:none;stroke:#ff6000;stroke-width:5;"/>
    <path clip-path="url(#p25ae85b04c)" d="M 1517.428741 322.433568 
L 1530.657498 295.976055 
L 1504.199985 295.976055 
z
" style="fill:none;stroke:#ff6000;stroke-width:5;"/>
    <path clip-path="url(#p25ae85b04c)" d="M 1429.546367 381.111078 
L 1442.775124 354.653565 
L 1416.31761 354.653565 
z
" style="fill:none;stroke:#ff6000;stroke-width:5;"/>
    <path clip-path="url(#p25ae85b04c)" d="M 1410.463076 394.160606 
L 1423.691832 367.703092 
L 1397.234319 367.703092 
z
" style="fill:none;stroke:#ff6000;stroke-width:5;"/>
    <path clip-path="url(#p25ae85b04c)" d="M 1397.391205 415.733364 
L 1410.619962 389.275851 
L 1384.162449 389.275851 
z
" style="fill:none;stroke:#ff6000;stroke-width:5;"/>
    <path clip-path="url(#p25ae85b04c)" d="M 1393.971231 411.681576 
L 1407.199988 385.224063 
L 1380.742474 385.224063 
z
" style="fill:none;stroke:#ff6000;stroke-width:5;"/>
    <path clip-path="url(#p25ae85b04c)" d="M 1393.819056 405.952732 
L 1407.047813 379.495219 
L 1380.590299 379.495219 
z
" style="fill:none;stroke:#ff6000;stroke-width:5;"/>
    <path clip-path="url(#p25ae85b04c)" d="M 1390.162082 412.435134 
L 1403.390838 385.977621 
L 1376.933325 385.977621 
z
" style="fill:none;stroke:#ff6000;stroke-width:5;"/>
    <path clip-path="url(#p25ae85b04c)" d="M 1400.324739 405.561632 
L 1413.553496 379.104118 
L 1387.095983 379.104118 
z
" style="fill:none;stroke:#ff6000;stroke-width:5;"/>
    <path clip-path="url(#p25ae85b04c)" d="M 1396.85126 407.646149 
L 1410.080017 381.188636 
L 1383.622504 381.188636 
z
" style="fill:none;stroke:#ff6000;stroke-width:5;"/>
    <path clip-path="url(#p25ae85b04c)" d="M 1401.227998 405.69509 
L 1414.456755 379.237577 
L 1387.999241 379.237577 
z
" style="fill:none;stroke:#ff6000;stroke-width:5;"/>
    <path clip-path="url(#p25ae85b04c)" d="M 1396.294598 407.661005 
L 1409.523355 381.203492 
L 1383.065842 381.203492 
z
" style="fill:none;stroke:#ff6000;stroke-width:5;"/>
    <path clip-path="url(#p25ae85b04c)" d="M 1598.637623 344.615748 
L 1611.866379 318.158235 
L 1585.408866 318.158235 
z
" style="fill:none;stroke:#ff6000;stroke-width:5;"/>
    <path clip-path="url(#p25ae85b04c)" d="M 1610.109957 264.123208 
L 1623.338714 237.665695 
L 1596.881201 237.665695 
z
" style="fill:none;stroke:#ff6000;stroke-width:5;"/>
    <path clip-path="url(#p25ae85b04c)" d="M 1675.556881 147.639661 
L 1688.785637 121.182148 
L 1662.328124 121.182148 
z
" style="fill:none;stroke:#ff6000;stroke-width:5;"/>
    <path clip-path="url(#p25ae85b04c)" d="M 1679.663481 85.561469 
L 1692.892238 59.103955 
L 1666.434725 59.103955 
z
" style="fill:none;stroke:#ff6000;stroke-width:5;"/>
   </g>
   <g id="patch_13">
    <path d="M 1358.829948 441.726562 
L 1358.829948 37.8 
" style="fill:none;stroke:#000000;stroke-linecap:square;stroke-linejoin:miter;stroke-width:6;"/>
   </g>
   <g id="patch_14">
    <path d="M 1750.023828 441.726562 
L 1750.023828 37.8 
" style="fill:none;stroke:#000000;stroke-linecap:square;stroke-linejoin:miter;stroke-width:6;"/>
   </g>
   <g id="patch_15">
    <path d="M 1358.829948 441.726562 
L 1750.023828 441.726562 
" style="fill:none;stroke:#000000;stroke-linecap:square;stroke-linejoin:miter;stroke-width:6;"/>
   </g>
   <g id="patch_16">
    <path d="M 1358.829948 37.8 
L 1750.023828 37.8 
" style="fill:none;stroke:#000000;stroke-linecap:square;stroke-linejoin:miter;stroke-width:6;"/>
   </g>
  </g>
 </g>
 <defs>
  <clipPath id="p6541576052">
   <rect height="403.926562" width="391.19388" x="172.407031" y="37.8"/>
  </clipPath>
  <clipPath id="p65f64b6436">
   <rect height="403.926562" width="391.19388" x="765.61849" y="37.8"/>
  </clipPath>
  <clipPath id="p25ae85b04c">
   <rect height="403.926562" width="391.19388" x="1358.829948" y="37.8"/>
  </clipPath>
 </defs>
</svg>
