<?xml version="1.0" encoding="utf-8" standalone="no"?>
<!DOCTYPE svg PUBLIC "-//W3C//DTD SVG 1.1//EN"
  "http://www.w3.org/Graphics/SVG/1.1/DTD/svg11.dtd">
<!-- Created with matplotlib (https://matplotlib.org/) -->
<svg height="576pt" version="1.1" viewBox="0 0 1152 576" width="1152pt" xmlns="http://www.w3.org/2000/svg" xmlns:xlink="http://www.w3.org/1999/xlink">
 <metadata>
  <rdf:RDF xmlns:cc="http://creativecommons.org/ns#" xmlns:dc="http://purl.org/dc/elements/1.1/" xmlns:rdf="http://www.w3.org/1999/02/22-rdf-syntax-ns#">
   <cc:Work>
    <dc:type rdf:resource="http://purl.org/dc/dcmitype/StillImage"/>
    <dc:date>2021-08-30T14:57:33.878824</dc:date>
    <dc:format>image/svg+xml</dc:format>
    <dc:creator>
     <cc:Agent>
      <dc:title>Matplotlib v3.3.2, https://matplotlib.org/</dc:title>
     </cc:Agent>
    </dc:creator>
   </cc:Work>
  </rdf:RDF>
 </metadata>
 <defs>
  <style type="text/css">*{stroke-linecap:butt;stroke-linejoin:round;}</style>
 </defs>
 <g id="figure_1">
  <g id="patch_1">
   <path d="M 0 576 
L 1152 576 
L 1152 0 
L 0 0 
z
" style="fill:none;"/>
  </g>
  <g id="axes_1">
   <g id="patch_2">
    <path d="M 202.061571 444.953125 
L 1016.367821 444.953125 
L 1016.367821 37.8 
L 202.061571 37.8 
z
" style="fill:none;"/>
   </g>
   <g id="matplotlib.axis_1">
    <g id="xtick_1">
     <g id="line2d_1">
      <defs>
       <path d="M 0 0 
L 0 18 
" id="m7e96daaa58" style="stroke:#262626;stroke-width:5;"/>
      </defs>
      <g>
       <use style="fill:#262626;stroke:#262626;stroke-width:5;" x="239.075492" xlink:href="#m7e96daaa58" y="444.953125"/>
      </g>
     </g>
     <g id="text_1">
      <!-- 0 -->
      <g style="fill:#262626;" transform="translate(226.89932 493.047656)scale(0.35 -0.35)">
       <defs>
        <path d="M 34.8125 4.296875 
Q 40.671875 4.296875 42.84375 9.609375 
Q 45.015625 14.9375 45.015625 36.375 
Q 45.015625 57.671875 42.84375 63.078125 
Q 40.671875 68.5 34.8125 68.5 
Q 28.953125 68.5 26.78125 63.171875 
Q 24.609375 57.859375 24.609375 36.375 
Q 24.609375 14.9375 26.78125 9.609375 
Q 28.953125 4.296875 34.8125 4.296875 
z
M 34.8125 -1.421875 
Q 20.21875 -1.421875 12.453125 8.3125 
Q 4.6875 18.0625 4.6875 36.375 
Q 4.6875 54.6875 12.453125 64.453125 
Q 20.21875 74.21875 34.8125 74.21875 
Q 49.359375 74.21875 57.125 64.453125 
Q 64.890625 54.6875 64.890625 36.375 
Q 64.890625 18.0625 57.125 8.3125 
Q 49.359375 -1.421875 34.8125 -1.421875 
z
" id="DejaVuSerif-Bold-48"/>
       </defs>
       <use xlink:href="#DejaVuSerif-Bold-48"/>
      </g>
     </g>
    </g>
    <g id="xtick_2">
     <g id="line2d_2">
      <g>
       <use style="fill:#262626;stroke:#262626;stroke-width:5;" x="457.157215" xlink:href="#m7e96daaa58" y="444.953125"/>
      </g>
     </g>
     <g id="text_2">
      <!-- 10 -->
      <g style="fill:#262626;" transform="translate(432.804871 493.047656)scale(0.35 -0.35)">
       <defs>
        <path d="M 13.71875 0 
L 13.71875 5.90625 
L 27.390625 5.90625 
L 27.390625 64.890625 
L 12.203125 55.90625 
L 12.203125 63.1875 
L 30.515625 74.21875 
L 45.90625 74.21875 
L 45.90625 5.90625 
L 59.625 5.90625 
L 59.625 0 
z
" id="DejaVuSerif-Bold-49"/>
       </defs>
       <use xlink:href="#DejaVuSerif-Bold-49"/>
       <use x="69.580078" xlink:href="#DejaVuSerif-Bold-48"/>
      </g>
     </g>
    </g>
    <g id="xtick_3">
     <g id="line2d_3">
      <g>
       <use style="fill:#262626;stroke:#262626;stroke-width:5;" x="675.238938" xlink:href="#m7e96daaa58" y="444.953125"/>
      </g>
     </g>
     <g id="text_3">
      <!-- 20 -->
      <g style="fill:#262626;" transform="translate(650.886594 493.047656)scale(0.35 -0.35)">
       <defs>
        <path d="M 13.1875 54.890625 
L 7.328125 54.890625 
L 7.328125 70.609375 
Q 13.28125 72.40625 19.109375 73.3125 
Q 24.953125 74.21875 30.90625 74.21875 
Q 44.828125 74.21875 52.609375 68.53125 
Q 60.40625 62.84375 60.40625 52.6875 
Q 60.40625 45.453125 56.109375 39.71875 
Q 51.8125 33.984375 39.703125 26.125 
L 19.390625 12.796875 
L 53.90625 12.796875 
L 53.90625 21.390625 
L 60.59375 21.390625 
L 60.59375 0 
L 6.6875 0 
L 6.6875 11.921875 
L 17.484375 19.390625 
Q 31.296875 28.90625 35.890625 35.59375 
Q 40.484375 42.28125 40.484375 51.21875 
Q 40.484375 59.671875 36.984375 64.078125 
Q 33.5 68.5 26.8125 68.5 
Q 21.046875 68.5 17.578125 65.015625 
Q 14.109375 61.53125 13.1875 54.890625 
z
" id="DejaVuSerif-Bold-50"/>
       </defs>
       <use xlink:href="#DejaVuSerif-Bold-50"/>
       <use x="69.580078" xlink:href="#DejaVuSerif-Bold-48"/>
      </g>
     </g>
    </g>
    <g id="xtick_4">
     <g id="line2d_4">
      <g>
       <use style="fill:#262626;stroke:#262626;stroke-width:5;" x="893.320661" xlink:href="#m7e96daaa58" y="444.953125"/>
      </g>
     </g>
     <g id="text_4">
      <!-- 30 -->
      <g style="fill:#262626;" transform="translate(868.968317 493.047656)scale(0.35 -0.35)">
       <defs>
        <path d="M 8.59375 70.796875 
Q 15.046875 72.515625 21.09375 73.359375 
Q 27.15625 74.21875 32.90625 74.21875 
Q 46.09375 74.21875 53.140625 69.5 
Q 60.203125 64.796875 60.203125 56 
Q 60.203125 49.421875 56.140625 45.3125 
Q 52.09375 41.21875 44.28125 39.796875 
Q 53.8125 38.28125 58.5 33.296875 
Q 63.1875 28.328125 63.1875 19.671875 
Q 63.1875 9.46875 55.09375 4.015625 
Q 47.015625 -1.421875 31.6875 -1.421875 
Q 25.921875 -1.421875 19.796875 -0.4375 
Q 13.671875 0.53125 6.984375 2.484375 
L 6.984375 18.5 
L 12.890625 18.5 
Q 13.421875 11.578125 17.234375 7.9375 
Q 21.046875 4.296875 27.78125 4.296875 
Q 35.203125 4.296875 39.25 8.421875 
Q 43.3125 12.546875 43.3125 20.125 
Q 43.3125 28.03125 39.078125 32.328125 
Q 34.859375 36.625 27.09375 36.625 
L 23.875 36.625 
L 23.875 42.484375 
L 26.421875 42.484375 
Q 33.59375 42.484375 37.203125 45.796875 
Q 40.828125 49.125 40.828125 55.71875 
Q 40.828125 61.921875 37.421875 65.203125 
Q 34.03125 68.5 27.6875 68.5 
Q 21.921875 68.5 18.546875 65.34375 
Q 15.1875 62.203125 14.5 56.203125 
L 8.59375 56.203125 
z
" id="DejaVuSerif-Bold-51"/>
       </defs>
       <use xlink:href="#DejaVuSerif-Bold-51"/>
       <use x="69.580078" xlink:href="#DejaVuSerif-Bold-48"/>
      </g>
     </g>
    </g>
    <g id="text_5">
     <!-- Time ($h$) -->
     <g style="fill:#262626;" transform="translate(524.689696 530.921094)scale(0.35 -0.35)">
      <defs>
       <path d="M 18.109375 0 
L 18.109375 5.90625 
L 27.78125 5.90625 
L 27.78125 66.21875 
L 7.8125 66.21875 
L 7.8125 54.6875 
L 1.125 54.6875 
L 1.125 72.90625 
L 73.390625 72.90625 
L 73.390625 54.6875 
L 66.796875 54.6875 
L 66.796875 66.21875 
L 46.6875 66.21875 
L 46.6875 5.90625 
L 56.390625 5.90625 
L 56.390625 0 
z
" id="DejaVuSerif-Bold-84"/>
       <path d="M 9.1875 66.609375 
Q 9.1875 70.5625 11.921875 73.265625 
Q 14.65625 75.984375 18.609375 75.984375 
Q 22.46875 75.984375 25.171875 73.265625 
Q 27.875 70.5625 27.875 66.609375 
Q 27.875 62.75 25.171875 60.03125 
Q 22.46875 57.328125 18.609375 57.328125 
Q 14.65625 57.328125 11.921875 60.015625 
Q 9.1875 62.703125 9.1875 66.609375 
z
M 28.078125 5.90625 
L 35.5 5.90625 
L 35.5 0 
L 3.421875 0 
L 3.421875 5.90625 
L 10.796875 5.90625 
L 10.796875 46 
L 3.421875 46 
L 3.421875 51.90625 
L 28.078125 51.90625 
z
" id="DejaVuSerif-Bold-105"/>
       <path d="M 60.6875 43.40625 
Q 64.3125 48.578125 68.5 50.953125 
Q 72.703125 53.328125 78.328125 53.328125 
Q 87.25 53.328125 91.671875 48.265625 
Q 96.09375 43.21875 96.09375 33.015625 
L 96.09375 5.90625 
L 103.515625 5.90625 
L 103.515625 0 
L 72.609375 0 
L 72.609375 5.90625 
L 78.8125 5.90625 
L 78.8125 30.421875 
Q 78.8125 40.140625 77.3125 42.671875 
Q 75.828125 45.21875 71.78125 45.21875 
Q 67.1875 45.21875 64.640625 41.671875 
Q 62.109375 38.140625 62.109375 31.59375 
L 62.109375 5.90625 
L 68.3125 5.90625 
L 68.3125 0 
L 38.625 0 
L 38.625 5.90625 
L 44.828125 5.90625 
L 44.828125 30.421875 
Q 44.828125 40.140625 43.3125 42.671875 
Q 41.796875 45.21875 37.796875 45.21875 
Q 33.15625 45.21875 30.609375 41.671875 
Q 28.078125 38.140625 28.078125 31.59375 
L 28.078125 5.90625 
L 34.28125 5.90625 
L 34.28125 0 
L 3.421875 0 
L 3.421875 5.90625 
L 10.796875 5.90625 
L 10.796875 46 
L 3.421875 46 
L 3.421875 51.90625 
L 28.078125 51.90625 
L 28.078125 44.578125 
Q 31.109375 49.125 35.015625 51.21875 
Q 38.921875 53.328125 44.28125 53.328125 
Q 50.640625 53.328125 54.59375 50.90625 
Q 58.546875 48.484375 60.6875 43.40625 
z
" id="DejaVuSerif-Bold-109"/>
       <path d="M 40.09375 29.296875 
Q 40.09375 39.546875 38.1875 43.671875 
Q 36.28125 47.796875 31.6875 47.796875 
Q 27.25 47.796875 25.3125 43.75 
Q 23.390625 39.703125 23.390625 30.171875 
L 23.390625 29.296875 
z
M 59.078125 23.484375 
L 23.390625 23.484375 
L 23.390625 23.09375 
Q 23.390625 13.03125 26.40625 8.5625 
Q 29.4375 4.109375 36.1875 4.109375 
Q 41.796875 4.109375 45.265625 7.078125 
Q 48.734375 10.0625 49.703125 15.71875 
L 57.8125 15.71875 
Q 55.71875 6.890625 49.46875 2.734375 
Q 43.21875 -1.421875 31.984375 -1.421875 
Q 18.5 -1.421875 11.296875 5.6875 
Q 4.109375 12.796875 4.109375 25.984375 
Q 4.109375 38.875 11.46875 46.09375 
Q 18.84375 53.328125 31.984375 53.328125 
Q 44.875 53.328125 51.75 45.734375 
Q 58.640625 38.140625 59.078125 23.484375 
z
" id="DejaVuSerif-Bold-101"/>
       <path id="DejaVuSerif-Bold-32"/>
       <path d="M 42.09375 -15.578125 
Q 25.640625 -9.46875 17.53125 1.90625 
Q 9.421875 13.28125 9.421875 30.171875 
Q 9.421875 47.078125 17.421875 58.296875 
Q 25.4375 69.53125 42.09375 75.984375 
L 42.09375 70.125 
Q 34.375 65.4375 30.984375 56.21875 
Q 27.59375 47.015625 27.59375 30.171875 
Q 27.59375 13.375 30.984375 4.171875 
Q 34.375 -5.03125 42.09375 -9.71875 
z
" id="DejaVuSerif-Bold-40"/>
       <path d="M 64.5 33.296875 
L 58.015625 0 
L 40.484375 0 
L 46 28.515625 
Q 46.578125 31.296875 46.890625 33.21875 
Q 47.21875 35.15625 47.21875 36.28125 
Q 47.21875 39.40625 45.484375 41.109375 
Q 43.75 42.828125 40.578125 42.828125 
Q 35.15625 42.828125 31.265625 38.59375 
Q 27.390625 34.375 25.875 26.90625 
L 20.609375 0 
L 3.078125 0 
L 17.828125 75.984375 
L 35.40625 75.984375 
L 29.6875 46.6875 
Q 34.515625 51.421875 39.390625 53.703125 
Q 44.28125 56 49.609375 56 
Q 57.171875 56 61.265625 52.046875 
Q 65.375 48.09375 65.375 40.921875 
Q 65.375 39.359375 65.15625 37.453125 
Q 64.9375 35.546875 64.5 33.296875 
z
" id="DejaVuSans-BoldOblique-104"/>
       <path d="M 5.078125 -15.578125 
L 5.078125 -9.71875 
Q 12.796875 -5.03125 16.1875 4.171875 
Q 19.578125 13.375 19.578125 30.171875 
Q 19.578125 47.015625 16.1875 56.21875 
Q 12.796875 65.4375 5.078125 70.125 
L 5.078125 75.984375 
Q 21.734375 69.53125 29.765625 58.296875 
Q 37.796875 47.078125 37.796875 30.171875 
Q 37.796875 13.28125 29.65625 1.90625 
Q 21.53125 -9.46875 5.078125 -15.578125 
z
" id="DejaVuSerif-Bold-41"/>
      </defs>
      <use transform="translate(0 0.015625)" xlink:href="#DejaVuSerif-Bold-84"/>
      <use transform="translate(74.414062 0.015625)" xlink:href="#DejaVuSerif-Bold-105"/>
      <use transform="translate(112.402344 0.015625)" xlink:href="#DejaVuSerif-Bold-109"/>
      <use transform="translate(218.212891 0.015625)" xlink:href="#DejaVuSerif-Bold-101"/>
      <use transform="translate(281.835938 0.015625)" xlink:href="#DejaVuSerif-Bold-32"/>
      <use transform="translate(316.650391 0.015625)" xlink:href="#DejaVuSerif-Bold-40"/>
      <use transform="translate(363.964844 0.015625)" xlink:href="#DejaVuSans-BoldOblique-104"/>
      <use transform="translate(435.15625 0.015625)" xlink:href="#DejaVuSerif-Bold-41"/>
     </g>
    </g>
   </g>
   <g id="matplotlib.axis_2">
    <g id="ytick_1">
     <g id="line2d_5">
      <defs>
       <path d="M 0 0 
L -18 0 
" id="me58c70adc2" style="stroke:#262626;stroke-width:5;"/>
      </defs>
      <g>
       <use style="fill:#262626;stroke:#262626;stroke-width:5;" x="202.061571" xlink:href="#me58c70adc2" y="413.633654"/>
      </g>
     </g>
     <g id="text_6">
      <!-- 0.0 -->
      <g style="fill:#262626;" transform="translate(119.672509 426.930919)scale(0.35 -0.35)">
       <defs>
        <path d="M 8.109375 7.90625 
Q 8.109375 11.71875 10.84375 14.453125 
Q 13.578125 17.1875 17.390625 17.1875 
Q 21.234375 17.1875 23.96875 14.453125 
Q 26.703125 11.71875 26.703125 7.90625 
Q 26.703125 4.046875 23.96875 1.3125 
Q 21.234375 -1.421875 17.390625 -1.421875 
Q 13.578125 -1.421875 10.84375 1.3125 
Q 8.109375 4.046875 8.109375 7.90625 
z
" id="DejaVuSerif-Bold-46"/>
       </defs>
       <use xlink:href="#DejaVuSerif-Bold-48"/>
       <use x="69.580078" xlink:href="#DejaVuSerif-Bold-46"/>
       <use x="104.394531" xlink:href="#DejaVuSerif-Bold-48"/>
      </g>
     </g>
    </g>
    <g id="ytick_2">
     <g id="line2d_6">
      <g>
       <use style="fill:#262626;stroke:#262626;stroke-width:5;" x="202.061571" xlink:href="#me58c70adc2" y="257.036298"/>
      </g>
     </g>
     <g id="text_7">
      <!-- 0.5 -->
      <g style="fill:#262626;" transform="translate(119.672509 270.333564)scale(0.35 -0.35)">
       <defs>
        <path d="M 56.390625 72.90625 
L 56.390625 60.109375 
L 17.390625 60.109375 
L 17.390625 44.09375 
Q 20.609375 46.578125 24.5625 47.84375 
Q 28.515625 49.125 32.90625 49.125 
Q 46.390625 49.125 54.203125 42.3125 
Q 62.015625 35.5 62.015625 23.78125 
Q 62.015625 11.859375 54.203125 5.21875 
Q 46.390625 -1.421875 32.328125 -1.421875 
Q 26.375 -1.421875 20.484375 -0.4375 
Q 14.59375 0.53125 8.203125 2.59375 
L 8.203125 18.5 
L 14.0625 18.5 
Q 14.359375 11.328125 17.796875 7.8125 
Q 21.234375 4.296875 27.984375 4.296875 
Q 35.15625 4.296875 38.625 9.109375 
Q 42.09375 13.921875 42.09375 23.78125 
Q 42.09375 33.5 38.6875 38.296875 
Q 35.296875 43.109375 28.421875 43.109375 
Q 24.703125 43.109375 21.796875 41.578125 
Q 18.890625 40.046875 16.40625 36.8125 
L 11.53125 36.8125 
L 11.53125 72.90625 
z
" id="DejaVuSerif-Bold-53"/>
       </defs>
       <use xlink:href="#DejaVuSerif-Bold-48"/>
       <use x="69.580078" xlink:href="#DejaVuSerif-Bold-46"/>
       <use x="104.394531" xlink:href="#DejaVuSerif-Bold-53"/>
      </g>
     </g>
    </g>
    <g id="ytick_3">
     <g id="line2d_7">
      <g>
       <use style="fill:#262626;stroke:#262626;stroke-width:5;" x="202.061571" xlink:href="#me58c70adc2" y="100.438942"/>
      </g>
     </g>
     <g id="text_8">
      <!-- 1.0 -->
      <g style="fill:#262626;" transform="translate(119.672509 113.736208)scale(0.35 -0.35)">
       <use xlink:href="#DejaVuSerif-Bold-49"/>
       <use x="69.580078" xlink:href="#DejaVuSerif-Bold-46"/>
       <use x="104.394531" xlink:href="#DejaVuSerif-Bold-48"/>
      </g>
     </g>
    </g>
    <g id="text_9">
     <!-- Relative $\alpha_{R,G}$ -->
     <g style="fill:#262626;" transform="translate(106.222509 366.501563)rotate(-90)scale(0.35 -0.35)">
      <defs>
       <path d="M 53.078125 35.59375 
Q 57.421875 34.96875 60.390625 32.71875 
Q 63.375 30.46875 65.578125 26.21875 
L 76.21875 5.90625 
L 83.6875 5.90625 
L 83.6875 0 
L 59.71875 0 
L 48.09375 22.015625 
Q 44.734375 28.859375 42.359375 30.734375 
Q 39.984375 32.625 35.796875 32.625 
L 32.8125 32.625 
L 32.8125 5.90625 
L 42.1875 5.90625 
L 42.1875 0 
L 4.6875 0 
L 4.6875 5.90625 
L 14.015625 5.90625 
L 14.015625 67 
L 4.6875 67 
L 4.6875 72.90625 
L 46.296875 72.90625 
Q 58.984375 72.90625 65.890625 67.796875 
Q 72.796875 62.703125 72.796875 53.328125 
Q 72.796875 45.703125 67.890625 41.28125 
Q 62.984375 36.859375 53.078125 35.59375 
z
M 32.8125 38.484375 
L 39.203125 38.484375 
Q 46.046875 38.484375 49.734375 42.1875 
Q 53.421875 45.90625 53.421875 52.78125 
Q 53.421875 59.671875 49.734375 63.328125 
Q 46.046875 67 39.203125 67 
L 32.8125 67 
z
" id="DejaVuSerif-Bold-82"/>
       <path d="M 28.078125 5.90625 
L 35.5 5.90625 
L 35.5 0 
L 3.421875 0 
L 3.421875 5.90625 
L 10.796875 5.90625 
L 10.796875 70.125 
L 3.421875 70.125 
L 3.421875 75.984375 
L 28.078125 75.984375 
z
" id="DejaVuSerif-Bold-108"/>
       <path d="M 55.078125 31.890625 
L 55.078125 5.90625 
L 62.5 5.90625 
L 62.5 0 
L 37.796875 0 
L 37.796875 6.59375 
Q 34.375 2.484375 30.171875 0.53125 
Q 25.984375 -1.421875 20.609375 -1.421875 
Q 12.640625 -1.421875 8.375 2.84375 
Q 4.109375 7.125 4.109375 15.09375 
Q 4.109375 23.828125 10.234375 28.171875 
Q 16.359375 32.515625 28.71875 32.515625 
L 37.796875 32.515625 
L 37.796875 35.59375 
Q 37.796875 41.890625 34.8125 44.890625 
Q 31.84375 47.90625 25.59375 47.90625 
Q 20.40625 47.90625 17.59375 45.78125 
Q 14.796875 43.65625 13.625 38.8125 
L 8.109375 38.8125 
L 8.109375 50 
Q 12.75 51.65625 17.71875 52.484375 
Q 22.703125 53.328125 28.21875 53.328125 
Q 42.140625 53.328125 48.609375 48.140625 
Q 55.078125 42.96875 55.078125 31.890625 
z
M 37.796875 16.3125 
L 37.796875 26.703125 
L 31.296875 26.703125 
Q 26.46875 26.703125 23.875 24.0625 
Q 21.296875 21.4375 21.296875 16.5 
Q 21.296875 11.578125 23.171875 9.125 
Q 25.046875 6.6875 28.90625 6.6875 
Q 32.90625 6.6875 35.34375 9.328125 
Q 37.796875 11.96875 37.796875 16.3125 
z
" id="DejaVuSerif-Bold-97"/>
       <path d="M 9.90625 46 
L 2.390625 46 
L 2.390625 51.90625 
L 9.90625 51.90625 
L 9.90625 68.015625 
L 27.203125 68.015625 
L 27.203125 51.90625 
L 41.609375 51.90625 
L 41.609375 46 
L 27.203125 46 
L 27.203125 14.203125 
Q 27.203125 7.421875 28.265625 5.765625 
Q 29.34375 4.109375 32.171875 4.109375 
Q 35.296875 4.109375 36.8125 6.203125 
Q 38.328125 8.296875 38.421875 12.703125 
L 45.703125 12.703125 
Q 45.265625 4.890625 41.421875 1.734375 
Q 37.59375 -1.421875 28.21875 -1.421875 
Q 17.53125 -1.421875 13.71875 1.921875 
Q 9.90625 5.28125 9.90625 14.203125 
z
" id="DejaVuSerif-Bold-116"/>
       <path d="M 22.3125 0 
L 3.90625 46 
L -1.8125 46 
L -1.8125 51.90625 
L 27.984375 51.90625 
L 27.984375 46 
L 21.6875 46 
L 34.8125 13.1875 
L 47.90625 46 
L 41.109375 46 
L 41.109375 51.90625 
L 60.59375 51.90625 
L 60.59375 46 
L 54.59375 46 
L 36.1875 0 
z
" id="DejaVuSerif-Bold-118"/>
       <path d="M 51.265625 49.421875 
L 54.046875 54.6875 
L 69.1875 54.6875 
L 54.296875 26.515625 
L 54.15625 19.046875 
Q 54 10.984375 57.328125 10.984375 
L 61.328125 10.984375 
L 59.1875 0 
L 54.203125 0 
Q 46.4375 0 43.265625 4.109375 
Q 42.578125 5.03125 42.4375 5.515625 
Q 39.5 2.546875 36.859375 0.640625 
Q 34.234375 -1.21875 23.25 -1.21875 
Q 9.96875 -1.21875 6.0625 6.25 
Q 3.8125 10.546875 3.8125 16.25 
Q 3.8125 21.96875 4.984375 28.03125 
Q 7.765625 42.390625 14.40625 48.25 
Q 23.046875 55.90625 36.71875 55.90625 
Q 47.65625 55.90625 51.265625 49.421875 
z
M 40.53125 28.765625 
L 40.578125 36.71875 
Q 40.671875 44.140625 34.234375 44.1875 
Q 30.953125 44.1875 27.4375 39.984375 
Q 23.921875 35.75 22.21875 27.203125 
Q 21.390625 22.90625 21.390625 19.78125 
Q 21.390625 16.65625 22.265625 14.75 
Q 23.96875 10.796875 27.671875 10.796875 
Q 31.390625 10.796875 35.109375 18.171875 
z
" id="DejaVuSans-BoldOblique-945"/>
       <path d="M 36.71875 40.578125 
Q 43.109375 40.578125 46.40625 43.546875 
Q 49.703125 46.53125 49.703125 52.296875 
Q 49.703125 55.90625 47.4375 57.59375 
Q 45.171875 59.28125 40.28125 59.28125 
L 32.515625 59.28125 
L 28.8125 40.578125 
z
M 26.3125 27.59375 
L 20.90625 0 
L 2.09375 0 
L 16.3125 72.90625 
L 44.09375 72.90625 
Q 56.109375 72.90625 62.296875 68.40625 
Q 68.5 63.921875 68.5 55.171875 
Q 68.5 46.34375 63.609375 40.625 
Q 58.734375 34.90625 50.390625 34.078125 
Q 54.203125 33.296875 56.734375 30.1875 
Q 59.28125 27.09375 61.1875 20.703125 
L 67.390625 0 
L 48.6875 0 
L 43.21875 18.109375 
Q 41.546875 23.53125 39.171875 25.5625 
Q 36.8125 27.59375 32.328125 27.59375 
z
" id="DejaVuSans-BoldOblique-82"/>
       <path d="M 10.203125 18.890625 
L 27.78125 18.890625 
L 27.78125 4 
L 15.71875 -14.203125 
L 5.328125 -14.203125 
L 10.203125 4 
z
" id="DejaVuSans-Bold-44"/>
       <path d="M 68.109375 5.421875 
Q 60.984375 1.953125 53.3125 0.265625 
Q 45.65625 -1.421875 36.921875 -1.421875 
Q 21.390625 -1.421875 12.5 6.46875 
Q 3.609375 14.359375 3.609375 27.984375 
Q 3.609375 36.8125 6.390625 44.546875 
Q 9.1875 52.296875 14.703125 58.6875 
Q 21.4375 66.5 30.59375 70.359375 
Q 39.75 74.21875 51.515625 74.21875 
Q 58.0625 74.21875 64.703125 72.84375 
Q 71.34375 71.484375 77.78125 68.796875 
L 74.90625 53.71875 
Q 68.953125 57.171875 63.25 58.875 
Q 57.5625 60.59375 51.8125 60.59375 
Q 39.203125 60.59375 31.296875 52.1875 
Q 23.390625 43.796875 23.390625 30.609375 
Q 23.390625 21.875 28 17.03125 
Q 32.625 12.203125 41.015625 12.203125 
Q 43.75 12.203125 46.484375 12.5625 
Q 49.21875 12.9375 52 13.71875 
L 54.78125 27.875 
L 43.3125 27.875 
L 45.703125 40.484375 
L 74.90625 40.484375 
z
" id="DejaVuSans-BoldOblique-71"/>
      </defs>
      <use transform="translate(0 0.015625)" xlink:href="#DejaVuSerif-Bold-82"/>
      <use transform="translate(83.105469 0.015625)" xlink:href="#DejaVuSerif-Bold-101"/>
      <use transform="translate(146.728516 0.015625)" xlink:href="#DejaVuSerif-Bold-108"/>
      <use transform="translate(184.716797 0.015625)" xlink:href="#DejaVuSerif-Bold-97"/>
      <use transform="translate(249.511719 0.015625)" xlink:href="#DejaVuSerif-Bold-116"/>
      <use transform="translate(295.703125 0.015625)" xlink:href="#DejaVuSerif-Bold-105"/>
      <use transform="translate(333.691406 0.015625)" xlink:href="#DejaVuSerif-Bold-118"/>
      <use transform="translate(391.796875 0.015625)" xlink:href="#DejaVuSerif-Bold-101"/>
      <use transform="translate(455.419922 0.015625)" xlink:href="#DejaVuSerif-Bold-32"/>
      <use transform="translate(490.234375 0.015625)" xlink:href="#DejaVuSans-BoldOblique-945"/>
      <use transform="translate(558.935547 -16.390625)scale(0.7)" xlink:href="#DejaVuSans-BoldOblique-82"/>
      <use transform="translate(612.836914 -16.390625)scale(0.7)" xlink:href="#DejaVuSans-Bold-44"/>
      <use transform="translate(654.016602 -16.390625)scale(0.7)" xlink:href="#DejaVuSans-BoldOblique-71"/>
     </g>
    </g>
   </g>
   <g id="PathCollection_1">
    <path clip-path="url(#pc3426d1a37)" d="M 239.075492 298.563621 
L 252.304248 272.106108 
L 225.846735 272.106108 
z
" style="fill:none;stroke:#088408;stroke-width:5;"/>
    <path clip-path="url(#pc3426d1a37)" d="M 279.953699 277.475718 
L 293.182456 251.018205 
L 266.724943 251.018205 
z
" style="fill:none;stroke:#088408;stroke-width:5;"/>
    <path clip-path="url(#pc3426d1a37)" d="M 325.402536 113.667699 
L 338.631293 87.210186 
L 312.17378 87.210186 
z
" style="fill:none;stroke:#088408;stroke-width:5;"/>
    <path clip-path="url(#pc3426d1a37)" d="M 365.359954 139.226881 
L 378.588711 112.769368 
L 352.131197 112.769368 
z
" style="fill:none;stroke:#088408;stroke-width:5;"/>
    <path clip-path="url(#pc3426d1a37)" d="M 387.655781 167.464015 
L 400.884538 141.006502 
L 374.427025 141.006502 
z
" style="fill:none;stroke:#088408;stroke-width:5;"/>
    <path clip-path="url(#pc3426d1a37)" d="M 419.86524 163.91702 
L 433.093997 137.459506 
L 406.636484 137.459506 
z
" style="fill:none;stroke:#088408;stroke-width:5;"/>
    <path clip-path="url(#pc3426d1a37)" d="M 508.4882 328.76316 
L 521.716957 302.305647 
L 495.259444 302.305647 
z
" style="fill:none;stroke:#088408;stroke-width:5;"/>
    <path clip-path="url(#pc3426d1a37)" d="M 558.992293 354.702561 
L 572.221049 328.245048 
L 545.763536 328.245048 
z
" style="fill:none;stroke:#088408;stroke-width:5;"/>
    <path clip-path="url(#pc3426d1a37)" d="M 605.180184 343.507581 
L 618.408941 317.050068 
L 591.951428 317.050068 
z
" style="fill:none;stroke:#088408;stroke-width:5;"/>
    <path clip-path="url(#pc3426d1a37)" d="M 690.353213 324.037237 
L 703.581969 297.579724 
L 677.124456 297.579724 
z
" style="fill:none;stroke:#088408;stroke-width:5;"/>
    <path clip-path="url(#pc3426d1a37)" d="M 733.73936 321.388326 
L 746.968117 294.930813 
L 720.510604 294.930813 
z
" style="fill:none;stroke:#088408;stroke-width:5;"/>
    <path clip-path="url(#pc3426d1a37)" d="M 827.220697 319.27261 
L 840.449453 292.815096 
L 813.99194 292.815096 
z
" style="fill:none;stroke:#088408;stroke-width:5;"/>
    <path clip-path="url(#pc3426d1a37)" d="M 873.914417 320.372414 
L 887.143173 293.914901 
L 860.68566 293.914901 
z
" style="fill:none;stroke:#088408;stroke-width:5;"/>
    <path clip-path="url(#pc3426d1a37)" d="M 923.973259 331.482859 
L 937.202015 305.025346 
L 910.744502 305.025346 
z
" style="fill:none;stroke:#088408;stroke-width:5;"/>
    <path clip-path="url(#pc3426d1a37)" d="M 935.613371 313.515874 
L 948.842127 287.058361 
L 922.384614 287.058361 
z
" style="fill:none;stroke:#088408;stroke-width:5;"/>
    <path clip-path="url(#pc3426d1a37)" d="M 949.788683 286.514517 
L 963.017439 260.057004 
L 936.559926 260.057004 
z
" style="fill:none;stroke:#088408;stroke-width:5;"/>
    <path clip-path="url(#pc3426d1a37)" d="M 979.353901 282.84435 
L 992.582657 256.386837 
L 966.125144 256.386837 
z
" style="fill:none;stroke:#088408;stroke-width:5;"/>
   </g>
   <g id="PathCollection_2">
    <path clip-path="url(#pc3426d1a37)" d="M 239.075492 307.937978 
L 252.304248 281.480465 
L 225.846735 281.480465 
z
" style="fill:none;stroke:#ff6000;stroke-width:5;"/>
    <path clip-path="url(#pc3426d1a37)" d="M 280.074856 298.402335 
L 293.303612 271.944822 
L 266.846099 271.944822 
z
" style="fill:none;stroke:#ff6000;stroke-width:5;"/>
    <path clip-path="url(#pc3426d1a37)" d="M 325.069356 255.448387 
L 338.298112 228.990874 
L 311.840599 228.990874 
z
" style="fill:none;stroke:#ff6000;stroke-width:5;"/>
    <path clip-path="url(#pc3426d1a37)" d="M 366.141414 286.321329 
L 379.37017 259.863816 
L 352.912657 259.863816 
z
" style="fill:none;stroke:#ff6000;stroke-width:5;"/>
    <path clip-path="url(#pc3426d1a37)" d="M 388.413009 300.714955 
L 401.641766 274.257442 
L 375.184253 274.257442 
z
" style="fill:none;stroke:#ff6000;stroke-width:5;"/>
    <path clip-path="url(#pc3426d1a37)" d="M 420.764827 275.127394 
L 433.993584 248.669881 
L 407.536071 248.669881 
z
" style="fill:none;stroke:#ff6000;stroke-width:5;"/>
    <path clip-path="url(#pc3426d1a37)" d="M 509.421106 302.810964 
L 522.649862 276.35345 
L 496.192349 276.35345 
z
" style="fill:none;stroke:#ff6000;stroke-width:5;"/>
    <path clip-path="url(#pc3426d1a37)" d="M 558.765124 319.033517 
L 571.993881 292.576004 
L 545.536368 292.576004 
z
" style="fill:none;stroke:#ff6000;stroke-width:5;"/>
    <path clip-path="url(#pc3426d1a37)" d="M 604.831859 314.09994 
L 618.060616 287.642427 
L 591.603103 287.642427 
z
" style="fill:none;stroke:#ff6000;stroke-width:5;"/>
    <path clip-path="url(#pc3426d1a37)" d="M 690.007917 300.083523 
L 703.236673 273.62601 
L 676.77916 273.62601 
z
" style="fill:none;stroke:#ff6000;stroke-width:5;"/>
    <path clip-path="url(#pc3426d1a37)" d="M 733.366804 305.118871 
L 746.59556 278.661358 
L 720.138047 278.661358 
z
" style="fill:none;stroke:#ff6000;stroke-width:5;"/>
    <path clip-path="url(#pc3426d1a37)" d="M 826.923863 296.94275 
L 840.15262 270.485236 
L 813.695107 270.485236 
z
" style="fill:none;stroke:#ff6000;stroke-width:5;"/>
    <path clip-path="url(#pc3426d1a37)" d="M 873.581236 306.860233 
L 886.809993 280.40272 
L 860.35248 280.40272 
z
" style="fill:none;stroke:#ff6000;stroke-width:5;"/>
    <path clip-path="url(#pc3426d1a37)" d="M 924.0823 113.667699 
L 937.311056 87.210186 
L 910.853543 87.210186 
z
" style="fill:none;stroke:#ff6000;stroke-width:5;"/>
    <path clip-path="url(#pc3426d1a37)" d="M 935.728469 239.990275 
L 948.957226 213.532762 
L 922.499713 213.532762 
z
" style="fill:none;stroke:#ff6000;stroke-width:5;"/>
    <path clip-path="url(#pc3426d1a37)" d="M 949.452473 281.742942 
L 962.68123 255.285429 
L 936.223717 255.285429 
z
" style="fill:none;stroke:#ff6000;stroke-width:5;"/>
    <path clip-path="url(#pc3426d1a37)" d="M 979.284236 304.828487 
L 992.512992 278.370973 
L 966.055479 278.370973 
z
" style="fill:none;stroke:#ff6000;stroke-width:5;"/>
   </g>
   <g id="patch_3">
    <path d="M 202.061571 444.953125 
L 202.061571 37.8 
" style="fill:none;stroke:#000000;stroke-linecap:square;stroke-linejoin:miter;stroke-width:6;"/>
   </g>
   <g id="patch_4">
    <path d="M 1016.367821 444.953125 
L 1016.367821 37.8 
" style="fill:none;stroke:#000000;stroke-linecap:square;stroke-linejoin:miter;stroke-width:6;"/>
   </g>
   <g id="patch_5">
    <path d="M 202.061571 444.953125 
L 1016.367821 444.953125 
" style="fill:none;stroke:#000000;stroke-linecap:square;stroke-linejoin:miter;stroke-width:6;"/>
   </g>
   <g id="patch_6">
    <path d="M 202.061571 37.8 
L 1016.367821 37.8 
" style="fill:none;stroke:#000000;stroke-linecap:square;stroke-linejoin:miter;stroke-width:6;"/>
   </g>
  </g>
 </g>
 <defs>
  <clipPath id="pc3426d1a37">
   <rect height="407.153125" width="814.30625" x="202.061571" y="37.8"/>
  </clipPath>
 </defs>
</svg>
